G04 #@! TF.FileFunction,Legend,Top*
%FSLAX46Y46*%
G04 Gerber Fmt 4.6, Leading zero omitted, Abs format (unit mm)*
G04 Created by KiCad (PCBNEW (2016-08-08 BZR 7014)-stable) date Tue Aug  9 20:31:53 2016*
%MOMM*%
%LPD*%
G01*
G04 APERTURE LIST*
%ADD10C,0.100000*%
%ADD11C,0.150000*%
%ADD12C,0.200000*%
G04 APERTURE END LIST*
D10*
D11*
X88202380Y-88547619D02*
X87726190Y-88880952D01*
X88202380Y-89119047D02*
X87202380Y-89119047D01*
X87202380Y-88738095D01*
X87250000Y-88642857D01*
X87297619Y-88595238D01*
X87392857Y-88547619D01*
X87535714Y-88547619D01*
X87630952Y-88595238D01*
X87678571Y-88642857D01*
X87726190Y-88738095D01*
X87726190Y-89119047D01*
X88154761Y-87738095D02*
X88202380Y-87833333D01*
X88202380Y-88023809D01*
X88154761Y-88119047D01*
X88059523Y-88166666D01*
X87678571Y-88166666D01*
X87583333Y-88119047D01*
X87535714Y-88023809D01*
X87535714Y-87833333D01*
X87583333Y-87738095D01*
X87678571Y-87690476D01*
X87773809Y-87690476D01*
X87869047Y-88166666D01*
X87535714Y-87357142D02*
X88202380Y-87119047D01*
X87535714Y-86880952D01*
X88107142Y-86500000D02*
X88154761Y-86452380D01*
X88202380Y-86500000D01*
X88154761Y-86547619D01*
X88107142Y-86500000D01*
X88202380Y-86500000D01*
X87916666Y-85309523D02*
X87916666Y-84833333D01*
X88202380Y-85404761D02*
X87202380Y-85071428D01*
X88202380Y-84738095D01*
X87202380Y-100190476D02*
X88011904Y-100190476D01*
X88107142Y-100142857D01*
X88154761Y-100095238D01*
X88202380Y-100000000D01*
X88202380Y-99809523D01*
X88154761Y-99714285D01*
X88107142Y-99666666D01*
X88011904Y-99619047D01*
X87202380Y-99619047D01*
X88154761Y-99190476D02*
X88202380Y-99047619D01*
X88202380Y-98809523D01*
X88154761Y-98714285D01*
X88107142Y-98666666D01*
X88011904Y-98619047D01*
X87916666Y-98619047D01*
X87821428Y-98666666D01*
X87773809Y-98714285D01*
X87726190Y-98809523D01*
X87678571Y-99000000D01*
X87630952Y-99095238D01*
X87583333Y-99142857D01*
X87488095Y-99190476D01*
X87392857Y-99190476D01*
X87297619Y-99142857D01*
X87250000Y-99095238D01*
X87202380Y-99000000D01*
X87202380Y-98761904D01*
X87250000Y-98619047D01*
X87678571Y-97857142D02*
X87726190Y-97714285D01*
X87773809Y-97666666D01*
X87869047Y-97619047D01*
X88011904Y-97619047D01*
X88107142Y-97666666D01*
X88154761Y-97714285D01*
X88202380Y-97809523D01*
X88202380Y-98190476D01*
X87202380Y-98190476D01*
X87202380Y-97857142D01*
X87250000Y-97761904D01*
X87297619Y-97714285D01*
X87392857Y-97666666D01*
X87488095Y-97666666D01*
X87583333Y-97714285D01*
X87630952Y-97761904D01*
X87678571Y-97857142D01*
X87678571Y-98190476D01*
X88202380Y-96428571D02*
X87202380Y-96428571D01*
X87202380Y-96190476D01*
X87250000Y-96047619D01*
X87345238Y-95952380D01*
X87440476Y-95904761D01*
X87630952Y-95857142D01*
X87773809Y-95857142D01*
X87964285Y-95904761D01*
X88059523Y-95952380D01*
X88154761Y-96047619D01*
X88202380Y-96190476D01*
X88202380Y-96428571D01*
X88202380Y-95285714D02*
X88154761Y-95380952D01*
X88107142Y-95428571D01*
X88011904Y-95476190D01*
X87726190Y-95476190D01*
X87630952Y-95428571D01*
X87583333Y-95380952D01*
X87535714Y-95285714D01*
X87535714Y-95142857D01*
X87583333Y-95047619D01*
X87630952Y-95000000D01*
X87726190Y-94952380D01*
X88011904Y-94952380D01*
X88107142Y-95000000D01*
X88154761Y-95047619D01*
X88202380Y-95142857D01*
X88202380Y-95285714D01*
X87535714Y-94523809D02*
X88202380Y-94523809D01*
X87630952Y-94523809D02*
X87583333Y-94476190D01*
X87535714Y-94380952D01*
X87535714Y-94238095D01*
X87583333Y-94142857D01*
X87678571Y-94095238D01*
X88202380Y-94095238D01*
X87535714Y-93190476D02*
X88345238Y-93190476D01*
X88440476Y-93238095D01*
X88488095Y-93285714D01*
X88535714Y-93380952D01*
X88535714Y-93523809D01*
X88488095Y-93619047D01*
X88154761Y-93190476D02*
X88202380Y-93285714D01*
X88202380Y-93476190D01*
X88154761Y-93571428D01*
X88107142Y-93619047D01*
X88011904Y-93666666D01*
X87726190Y-93666666D01*
X87630952Y-93619047D01*
X87583333Y-93571428D01*
X87535714Y-93476190D01*
X87535714Y-93285714D01*
X87583333Y-93190476D01*
X88202380Y-92571428D02*
X88154761Y-92666666D01*
X88059523Y-92714285D01*
X87202380Y-92714285D01*
X88154761Y-91809523D02*
X88202380Y-91904761D01*
X88202380Y-92095238D01*
X88154761Y-92190476D01*
X88059523Y-92238095D01*
X87678571Y-92238095D01*
X87583333Y-92190476D01*
X87535714Y-92095238D01*
X87535714Y-91904761D01*
X87583333Y-91809523D01*
X87678571Y-91761904D01*
X87773809Y-91761904D01*
X87869047Y-92238095D01*
X84514285Y-100007142D02*
X84514285Y-99664285D01*
X84600000Y-99492857D01*
X84771428Y-99321428D01*
X85114285Y-99235714D01*
X85714285Y-99235714D01*
X86057142Y-99321428D01*
X86228571Y-99492857D01*
X86314285Y-99664285D01*
X86314285Y-100007142D01*
X86228571Y-100178571D01*
X86057142Y-100350000D01*
X85714285Y-100435714D01*
X85114285Y-100435714D01*
X84771428Y-100350000D01*
X84600000Y-100178571D01*
X84514285Y-100007142D01*
X85114285Y-98464285D02*
X86914285Y-98464285D01*
X85200000Y-98464285D02*
X85114285Y-98292857D01*
X85114285Y-97950000D01*
X85200000Y-97778571D01*
X85285714Y-97692857D01*
X85457142Y-97607142D01*
X85971428Y-97607142D01*
X86142857Y-97692857D01*
X86228571Y-97778571D01*
X86314285Y-97950000D01*
X86314285Y-98292857D01*
X86228571Y-98464285D01*
X86228571Y-96150000D02*
X86314285Y-96321428D01*
X86314285Y-96664285D01*
X86228571Y-96835714D01*
X86057142Y-96921428D01*
X85371428Y-96921428D01*
X85200000Y-96835714D01*
X85114285Y-96664285D01*
X85114285Y-96321428D01*
X85200000Y-96150000D01*
X85371428Y-96064285D01*
X85542857Y-96064285D01*
X85714285Y-96921428D01*
X85114285Y-95292857D02*
X86314285Y-95292857D01*
X85285714Y-95292857D02*
X85200000Y-95207142D01*
X85114285Y-95035714D01*
X85114285Y-94778571D01*
X85200000Y-94607142D01*
X85371428Y-94521428D01*
X86314285Y-94521428D01*
X86314285Y-92807142D02*
X86314285Y-93664285D01*
X84514285Y-93664285D01*
X86314285Y-91950000D02*
X86228571Y-92121428D01*
X86142857Y-92207142D01*
X85971428Y-92292857D01*
X85457142Y-92292857D01*
X85285714Y-92207142D01*
X85200000Y-92121428D01*
X85114285Y-91950000D01*
X85114285Y-91692857D01*
X85200000Y-91521428D01*
X85285714Y-91435714D01*
X85457142Y-91350000D01*
X85971428Y-91350000D01*
X86142857Y-91435714D01*
X86228571Y-91521428D01*
X86314285Y-91692857D01*
X86314285Y-91950000D01*
X84514285Y-90750000D02*
X86314285Y-90321428D01*
X85028571Y-89978571D01*
X86314285Y-89635714D01*
X84514285Y-89207142D01*
X86314285Y-88521428D02*
X84514285Y-88521428D01*
X84514285Y-87835714D01*
X84600000Y-87664285D01*
X84685714Y-87578571D01*
X84857142Y-87492857D01*
X85114285Y-87492857D01*
X85285714Y-87578571D01*
X85371428Y-87664285D01*
X85457142Y-87835714D01*
X85457142Y-88521428D01*
X85800000Y-86807142D02*
X85800000Y-85950000D01*
X86314285Y-86978571D02*
X84514285Y-86378571D01*
X86314285Y-85778571D01*
X86314285Y-85178571D02*
X84514285Y-85178571D01*
X86314285Y-84150000D01*
X84514285Y-84150000D01*
D12*
X96200000Y-80000000D02*
X97250000Y-79750000D01*
X96000000Y-81800000D02*
X97250000Y-81500000D01*
X98250000Y-83000000D02*
X97000000Y-84000000D01*
X97250000Y-86750000D02*
X98000000Y-87250000D01*
X99500000Y-88250000D02*
X98750000Y-87750000D01*
D11*
X101625000Y-98375000D02*
X101100000Y-98375000D01*
X101625000Y-105625000D02*
X101100000Y-105625000D01*
X94375000Y-105625000D02*
X94900000Y-105625000D01*
X94375000Y-98375000D02*
X94900000Y-98375000D01*
X101625000Y-98375000D02*
X101625000Y-98900000D01*
X94375000Y-98375000D02*
X94375000Y-98900000D01*
X94375000Y-105625000D02*
X94375000Y-105100000D01*
X101625000Y-105625000D02*
X101625000Y-105100000D01*
X101100000Y-98375000D02*
X101100000Y-97000000D01*
X105125000Y-102500000D02*
X105125000Y-103700000D01*
X103375000Y-103700000D02*
X103375000Y-102500000D01*
X97950000Y-95275000D02*
X97450000Y-95275000D01*
X97450000Y-96225000D02*
X97950000Y-96225000D01*
X91325000Y-105000000D02*
X91325000Y-105500000D01*
X92275000Y-105500000D02*
X92275000Y-105000000D01*
X104675000Y-99000000D02*
X104675000Y-98500000D01*
X103725000Y-98500000D02*
X103725000Y-99000000D01*
X100900000Y-108675000D02*
X101400000Y-108675000D01*
X101400000Y-107725000D02*
X100900000Y-107725000D01*
X106725000Y-96450000D02*
X106725000Y-96950000D01*
X107675000Y-96950000D02*
X107675000Y-96450000D01*
X100325000Y-93650000D02*
X100325000Y-93150000D01*
X99375000Y-93150000D02*
X99375000Y-93650000D01*
X98362184Y-86095420D02*
X98362184Y-86595420D01*
X99312184Y-86595420D02*
X99312184Y-86095420D01*
X92089654Y-86095367D02*
X92089654Y-86595367D01*
X93039654Y-86595367D02*
X93039654Y-86095367D01*
X97260000Y-84225000D02*
X96760000Y-84225000D01*
X96760000Y-85175000D02*
X97260000Y-85175000D01*
X96875000Y-86390000D02*
X96875000Y-85890000D01*
X95925000Y-85890000D02*
X95925000Y-86390000D01*
X96191547Y-82061600D02*
X95691547Y-82061600D01*
X95691547Y-83011600D02*
X96191547Y-83011600D01*
X96165967Y-80156600D02*
X95665967Y-80156600D01*
X95665967Y-81106600D02*
X96165967Y-81106600D01*
X95805000Y-86390000D02*
X95805000Y-85890000D01*
X94855000Y-85890000D02*
X94855000Y-86390000D01*
X95805000Y-84260000D02*
X95805000Y-83760000D01*
X94855000Y-83760000D02*
X94855000Y-84260000D01*
X102912060Y-87993747D02*
X102912060Y-87493747D01*
X101962060Y-87493747D02*
X101962060Y-87993747D01*
X101962060Y-89703727D02*
X101962060Y-90203727D01*
X102912060Y-90203727D02*
X102912060Y-89703727D01*
X93006060Y-92311927D02*
X93006060Y-91811927D01*
X92056060Y-91811927D02*
X92056060Y-92311927D01*
X87500000Y-104050000D02*
X90200000Y-104050000D01*
X87500000Y-102550000D02*
X90200000Y-102550000D01*
X89000000Y-103450000D02*
X89000000Y-103200000D01*
X89000000Y-103200000D02*
X88850000Y-103350000D01*
X88750000Y-102950000D02*
X88750000Y-103650000D01*
X89100000Y-103300000D02*
X89450000Y-103300000D01*
X88750000Y-103300000D02*
X89100000Y-102950000D01*
X89100000Y-102950000D02*
X89100000Y-103650000D01*
X89100000Y-103650000D02*
X88750000Y-103300000D01*
X87500000Y-105950000D02*
X90200000Y-105950000D01*
X87500000Y-104450000D02*
X90200000Y-104450000D01*
X89000000Y-105350000D02*
X89000000Y-105100000D01*
X89000000Y-105100000D02*
X88850000Y-105250000D01*
X88750000Y-104850000D02*
X88750000Y-105550000D01*
X89100000Y-105200000D02*
X89450000Y-105200000D01*
X88750000Y-105200000D02*
X89100000Y-104850000D01*
X89100000Y-104850000D02*
X89100000Y-105550000D01*
X89100000Y-105550000D02*
X88750000Y-105200000D01*
X109350000Y-93270000D02*
X109350000Y-91720000D01*
X109350000Y-91720000D02*
X112450000Y-91720000D01*
X112450000Y-91720000D02*
X112450000Y-93270000D01*
X112170000Y-94540000D02*
X112170000Y-104700000D01*
X112170000Y-104700000D02*
X109630000Y-104700000D01*
X109630000Y-104700000D02*
X109630000Y-94540000D01*
X112170000Y-94540000D02*
X109630000Y-94540000D01*
X87430000Y-76510000D02*
X89970000Y-76510000D01*
X91900000Y-78440000D02*
X91900000Y-80980000D01*
X89970000Y-82910000D02*
X87430000Y-82910000D01*
X85500000Y-80980000D02*
X85500000Y-78440000D01*
X87075000Y-101750000D02*
X87075000Y-102950000D01*
X85325000Y-102950000D02*
X85325000Y-101750000D01*
X85325000Y-106700000D02*
X85325000Y-105500000D01*
X87075000Y-105500000D02*
X87075000Y-106700000D01*
X91875000Y-88650000D02*
X91875000Y-89150000D01*
X92925000Y-89150000D02*
X92925000Y-88650000D01*
X93245000Y-87765000D02*
X93995000Y-87765000D01*
X98495000Y-93015000D02*
X97745000Y-93015000D01*
X98495000Y-87765000D02*
X97745000Y-87765000D01*
X93245000Y-93015000D02*
X93245000Y-92265000D01*
X98495000Y-93015000D02*
X98495000Y-92265000D01*
X98495000Y-87765000D02*
X98495000Y-88515000D01*
X93245000Y-87765000D02*
X93245000Y-88515000D01*
X95110000Y-79255000D02*
X94610000Y-79255000D01*
X94610000Y-80205000D02*
X95110000Y-80205000D01*
X94895000Y-78930000D02*
X94895000Y-79430000D01*
X95845000Y-79430000D02*
X95845000Y-78930000D01*
X106500000Y-104400000D02*
X106500000Y-101600000D01*
X106500000Y-101600000D02*
X107900000Y-101600000D01*
X107900000Y-101600000D02*
X107900000Y-104400000D01*
X107900000Y-104400000D02*
X106500000Y-104400000D01*
X105450000Y-100000000D02*
X106100000Y-100000000D01*
X108950000Y-100000000D02*
X108300000Y-100000000D01*
X108300000Y-106000000D02*
X108950000Y-106000000D01*
X105450000Y-106000000D02*
X106100000Y-106000000D01*
X105450000Y-100000000D02*
X105450000Y-106000000D01*
X108950000Y-106000000D02*
X108950000Y-100000000D01*
X93400000Y-113300000D02*
X102600000Y-113300000D01*
X104000000Y-116800000D02*
X104000000Y-116550000D01*
X92000000Y-116800000D02*
X92000000Y-116550000D01*
X109189860Y-78831220D02*
X110660520Y-78470540D01*
X110660520Y-78470540D02*
X109598800Y-78191140D01*
X109598800Y-78191140D02*
X110670680Y-77881260D01*
X110670680Y-77881260D02*
X109220340Y-77540900D01*
X109880740Y-80251080D02*
X109870580Y-79461140D01*
X109870580Y-79461140D02*
X109880740Y-79450980D01*
X109880740Y-79450980D02*
X109870580Y-79450980D01*
X109159380Y-79410340D02*
X110701160Y-79410340D01*
X109149220Y-80299340D02*
X110718940Y-80299340D01*
X110718940Y-80299340D02*
X110708780Y-80289180D01*
X109250820Y-80850520D02*
X109169540Y-81201040D01*
X109169540Y-81201040D02*
X109159380Y-81521080D01*
X109159380Y-81521080D02*
X109360040Y-81759840D01*
X109360040Y-81759840D02*
X109629280Y-81790320D01*
X109629280Y-81790320D02*
X109870580Y-81549020D01*
X109870580Y-81549020D02*
X110000120Y-81160400D01*
X110000120Y-81160400D02*
X110160140Y-80980060D01*
X110160140Y-80980060D02*
X110459860Y-80939420D01*
X110459860Y-80939420D02*
X110680840Y-81170560D01*
X110680840Y-81170560D02*
X110708780Y-81490600D01*
X110708780Y-81490600D02*
X110599560Y-81841120D01*
X109149220Y-82879980D02*
X109169540Y-83128900D01*
X109169540Y-83128900D02*
X109410840Y-83370200D01*
X109410840Y-83370200D02*
X109901060Y-83459100D01*
X109901060Y-83459100D02*
X110249040Y-83431160D01*
X110249040Y-83431160D02*
X110569080Y-83230500D01*
X110569080Y-83230500D02*
X110691000Y-82979040D01*
X110691000Y-82979040D02*
X110619880Y-82669160D01*
X110619880Y-82669160D02*
X110439540Y-82450720D01*
X110439540Y-82450720D02*
X109979800Y-82379600D01*
X109979800Y-82379600D02*
X109570860Y-82430400D01*
X109570860Y-82430400D02*
X109288920Y-82539620D01*
X109288920Y-82539620D02*
X109159380Y-82900300D01*
X107429640Y-82280540D02*
X107990980Y-82539620D01*
X107990980Y-82539620D02*
X108509140Y-82001140D01*
X108509140Y-82001140D02*
X108239900Y-81480440D01*
X108239900Y-81480440D02*
X108399920Y-81201040D01*
X108379600Y-79760860D02*
X108189100Y-79430660D01*
X108189100Y-79430660D02*
X108519300Y-78991240D01*
X108519300Y-78991240D02*
X108029080Y-78518800D01*
X108029080Y-78518800D02*
X107549020Y-78800740D01*
X107549020Y-78800740D02*
X107079120Y-78610240D01*
X107079120Y-78610240D02*
X106891160Y-78000640D01*
X106891160Y-78000640D02*
X106210440Y-78000640D01*
X106210440Y-78000640D02*
X106070740Y-78559440D01*
X106070740Y-78559440D02*
X105499240Y-78760100D01*
X105499240Y-78760100D02*
X105029340Y-78490860D01*
X105029340Y-78490860D02*
X104518800Y-78960760D01*
X104518800Y-78960760D02*
X104780420Y-79478920D01*
X104780420Y-79478920D02*
X104579760Y-79948820D01*
X104579760Y-79948820D02*
X104038740Y-80119000D01*
X104038740Y-80119000D02*
X104020960Y-80809880D01*
X104020960Y-80809880D02*
X104569600Y-81020700D01*
X104569600Y-81020700D02*
X104739780Y-81439800D01*
X104739780Y-81439800D02*
X104470540Y-81990980D01*
X104470540Y-81990980D02*
X104998860Y-82509140D01*
X104998860Y-82509140D02*
X105539880Y-82260220D01*
X105539880Y-82260220D02*
X106019940Y-82430400D01*
X106019940Y-82430400D02*
X106119000Y-82979040D01*
X106119000Y-82979040D02*
X106820040Y-82989200D01*
X106820040Y-82989200D02*
X107020700Y-82430400D01*
X107020700Y-82430400D02*
X107419480Y-82290700D01*
X107399160Y-80149480D02*
X107249300Y-79849760D01*
X107249300Y-79849760D02*
X107051180Y-79649100D01*
X107051180Y-79649100D02*
X106649860Y-79499240D01*
X106649860Y-79499240D02*
X106251080Y-79499240D01*
X106251080Y-79499240D02*
X105900560Y-79649100D01*
X105900560Y-79649100D02*
X105550040Y-80101220D01*
X105550040Y-80101220D02*
X105499240Y-80550800D01*
X105499240Y-80550800D02*
X105600840Y-80949580D01*
X105600840Y-80949580D02*
X105948820Y-81350900D01*
X105948820Y-81350900D02*
X106400940Y-81500760D01*
X106400940Y-81500760D02*
X106898780Y-81449960D01*
X106898780Y-81449960D02*
X107201040Y-81201040D01*
X107201040Y-81201040D02*
X107399160Y-80850520D01*
X107399160Y-80850520D02*
X108399920Y-81201040D01*
X107399160Y-80149480D02*
X108399920Y-79750700D01*
X93038095Y-106052380D02*
X93038095Y-106861904D01*
X93085714Y-106957142D01*
X93133333Y-107004761D01*
X93228571Y-107052380D01*
X93419047Y-107052380D01*
X93514285Y-107004761D01*
X93561904Y-106957142D01*
X93609523Y-106861904D01*
X93609523Y-106052380D01*
X94038095Y-106147619D02*
X94085714Y-106100000D01*
X94180952Y-106052380D01*
X94419047Y-106052380D01*
X94514285Y-106100000D01*
X94561904Y-106147619D01*
X94609523Y-106242857D01*
X94609523Y-106338095D01*
X94561904Y-106480952D01*
X93990476Y-107052380D01*
X94609523Y-107052380D01*
X104178571Y-108107142D02*
X104226190Y-107964285D01*
X104273809Y-107916666D01*
X104369047Y-107869047D01*
X104511904Y-107869047D01*
X104607142Y-107916666D01*
X104654761Y-107964285D01*
X104702380Y-108059523D01*
X104702380Y-108440476D01*
X103702380Y-108440476D01*
X103702380Y-108107142D01*
X103750000Y-108011904D01*
X103797619Y-107964285D01*
X103892857Y-107916666D01*
X103988095Y-107916666D01*
X104083333Y-107964285D01*
X104130952Y-108011904D01*
X104178571Y-108107142D01*
X104178571Y-108440476D01*
X103702380Y-107250000D02*
X103702380Y-107059523D01*
X103750000Y-106964285D01*
X103845238Y-106869047D01*
X104035714Y-106821428D01*
X104369047Y-106821428D01*
X104559523Y-106869047D01*
X104654761Y-106964285D01*
X104702380Y-107059523D01*
X104702380Y-107250000D01*
X104654761Y-107345238D01*
X104559523Y-107440476D01*
X104369047Y-107488095D01*
X104035714Y-107488095D01*
X103845238Y-107440476D01*
X103750000Y-107345238D01*
X103702380Y-107250000D01*
X103702380Y-106202380D02*
X103702380Y-106011904D01*
X103750000Y-105916666D01*
X103845238Y-105821428D01*
X104035714Y-105773809D01*
X104369047Y-105773809D01*
X104559523Y-105821428D01*
X104654761Y-105916666D01*
X104702380Y-106011904D01*
X104702380Y-106202380D01*
X104654761Y-106297619D01*
X104559523Y-106392857D01*
X104369047Y-106440476D01*
X104035714Y-106440476D01*
X103845238Y-106392857D01*
X103750000Y-106297619D01*
X103702380Y-106202380D01*
X103702380Y-105488095D02*
X103702380Y-104916666D01*
X104702380Y-105202380D02*
X103702380Y-105202380D01*
X99833333Y-96107142D02*
X99785714Y-96154761D01*
X99642857Y-96202380D01*
X99547619Y-96202380D01*
X99404761Y-96154761D01*
X99309523Y-96059523D01*
X99261904Y-95964285D01*
X99214285Y-95773809D01*
X99214285Y-95630952D01*
X99261904Y-95440476D01*
X99309523Y-95345238D01*
X99404761Y-95250000D01*
X99547619Y-95202380D01*
X99642857Y-95202380D01*
X99785714Y-95250000D01*
X99833333Y-95297619D01*
X100166666Y-95202380D02*
X100833333Y-95202380D01*
X100404761Y-96202380D01*
X92107142Y-103166666D02*
X92154761Y-103214285D01*
X92202380Y-103357142D01*
X92202380Y-103452380D01*
X92154761Y-103595238D01*
X92059523Y-103690476D01*
X91964285Y-103738095D01*
X91773809Y-103785714D01*
X91630952Y-103785714D01*
X91440476Y-103738095D01*
X91345238Y-103690476D01*
X91250000Y-103595238D01*
X91202380Y-103452380D01*
X91202380Y-103357142D01*
X91250000Y-103214285D01*
X91297619Y-103166666D01*
X91535714Y-102309523D02*
X92202380Y-102309523D01*
X91154761Y-102547619D02*
X91869047Y-102785714D01*
X91869047Y-102166666D01*
X104607142Y-96666666D02*
X104654761Y-96714285D01*
X104702380Y-96857142D01*
X104702380Y-96952380D01*
X104654761Y-97095238D01*
X104559523Y-97190476D01*
X104464285Y-97238095D01*
X104273809Y-97285714D01*
X104130952Y-97285714D01*
X103940476Y-97238095D01*
X103845238Y-97190476D01*
X103750000Y-97095238D01*
X103702380Y-96952380D01*
X103702380Y-96857142D01*
X103750000Y-96714285D01*
X103797619Y-96666666D01*
X103702380Y-95761904D02*
X103702380Y-96238095D01*
X104178571Y-96285714D01*
X104130952Y-96238095D01*
X104083333Y-96142857D01*
X104083333Y-95904761D01*
X104130952Y-95809523D01*
X104178571Y-95761904D01*
X104273809Y-95714285D01*
X104511904Y-95714285D01*
X104607142Y-95761904D01*
X104654761Y-95809523D01*
X104702380Y-95904761D01*
X104702380Y-96142857D01*
X104654761Y-96238095D01*
X104607142Y-96285714D01*
X101083333Y-109857142D02*
X101035714Y-109904761D01*
X100892857Y-109952380D01*
X100797619Y-109952380D01*
X100654761Y-109904761D01*
X100559523Y-109809523D01*
X100511904Y-109714285D01*
X100464285Y-109523809D01*
X100464285Y-109380952D01*
X100511904Y-109190476D01*
X100559523Y-109095238D01*
X100654761Y-109000000D01*
X100797619Y-108952380D01*
X100892857Y-108952380D01*
X101035714Y-109000000D01*
X101083333Y-109047619D01*
X101559523Y-109952380D02*
X101750000Y-109952380D01*
X101845238Y-109904761D01*
X101892857Y-109857142D01*
X101988095Y-109714285D01*
X102035714Y-109523809D01*
X102035714Y-109142857D01*
X101988095Y-109047619D01*
X101940476Y-109000000D01*
X101845238Y-108952380D01*
X101654761Y-108952380D01*
X101559523Y-109000000D01*
X101511904Y-109047619D01*
X101464285Y-109142857D01*
X101464285Y-109380952D01*
X101511904Y-109476190D01*
X101559523Y-109523809D01*
X101654761Y-109571428D01*
X101845238Y-109571428D01*
X101940476Y-109523809D01*
X101988095Y-109476190D01*
X102035714Y-109380952D01*
X107607142Y-94642857D02*
X107654761Y-94690476D01*
X107702380Y-94833333D01*
X107702380Y-94928571D01*
X107654761Y-95071428D01*
X107559523Y-95166666D01*
X107464285Y-95214285D01*
X107273809Y-95261904D01*
X107130952Y-95261904D01*
X106940476Y-95214285D01*
X106845238Y-95166666D01*
X106750000Y-95071428D01*
X106702380Y-94928571D01*
X106702380Y-94833333D01*
X106750000Y-94690476D01*
X106797619Y-94642857D01*
X107702380Y-93690476D02*
X107702380Y-94261904D01*
X107702380Y-93976190D02*
X106702380Y-93976190D01*
X106845238Y-94071428D01*
X106940476Y-94166666D01*
X106988095Y-94261904D01*
X106702380Y-93071428D02*
X106702380Y-92976190D01*
X106750000Y-92880952D01*
X106797619Y-92833333D01*
X106892857Y-92785714D01*
X107083333Y-92738095D01*
X107321428Y-92738095D01*
X107511904Y-92785714D01*
X107607142Y-92833333D01*
X107654761Y-92880952D01*
X107702380Y-92976190D01*
X107702380Y-93071428D01*
X107654761Y-93166666D01*
X107607142Y-93214285D01*
X107511904Y-93261904D01*
X107321428Y-93309523D01*
X107083333Y-93309523D01*
X106892857Y-93261904D01*
X106797619Y-93214285D01*
X106750000Y-93166666D01*
X106702380Y-93071428D01*
X100357142Y-91392857D02*
X100404761Y-91440476D01*
X100452380Y-91583333D01*
X100452380Y-91678571D01*
X100404761Y-91821428D01*
X100309523Y-91916666D01*
X100214285Y-91964285D01*
X100023809Y-92011904D01*
X99880952Y-92011904D01*
X99690476Y-91964285D01*
X99595238Y-91916666D01*
X99500000Y-91821428D01*
X99452380Y-91678571D01*
X99452380Y-91583333D01*
X99500000Y-91440476D01*
X99547619Y-91392857D01*
X100452380Y-90440476D02*
X100452380Y-91011904D01*
X100452380Y-90726190D02*
X99452380Y-90726190D01*
X99595238Y-90821428D01*
X99690476Y-90916666D01*
X99738095Y-91011904D01*
X100452380Y-89488095D02*
X100452380Y-90059523D01*
X100452380Y-89773809D02*
X99452380Y-89773809D01*
X99595238Y-89869047D01*
X99690476Y-89964285D01*
X99738095Y-90059523D01*
X100607142Y-84892857D02*
X100654761Y-84940476D01*
X100702380Y-85083333D01*
X100702380Y-85178571D01*
X100654761Y-85321428D01*
X100559523Y-85416666D01*
X100464285Y-85464285D01*
X100273809Y-85511904D01*
X100130952Y-85511904D01*
X99940476Y-85464285D01*
X99845238Y-85416666D01*
X99750000Y-85321428D01*
X99702380Y-85178571D01*
X99702380Y-85083333D01*
X99750000Y-84940476D01*
X99797619Y-84892857D01*
X100702380Y-83940476D02*
X100702380Y-84511904D01*
X100702380Y-84226190D02*
X99702380Y-84226190D01*
X99845238Y-84321428D01*
X99940476Y-84416666D01*
X99988095Y-84511904D01*
X99797619Y-83559523D02*
X99750000Y-83511904D01*
X99702380Y-83416666D01*
X99702380Y-83178571D01*
X99750000Y-83083333D01*
X99797619Y-83035714D01*
X99892857Y-82988095D01*
X99988095Y-82988095D01*
X100130952Y-83035714D01*
X100702380Y-83607142D01*
X100702380Y-82988095D01*
X91357142Y-86988224D02*
X91404761Y-87035843D01*
X91452380Y-87178700D01*
X91452380Y-87273938D01*
X91404761Y-87416795D01*
X91309523Y-87512033D01*
X91214285Y-87559652D01*
X91023809Y-87607271D01*
X90880952Y-87607271D01*
X90690476Y-87559652D01*
X90595238Y-87512033D01*
X90500000Y-87416795D01*
X90452380Y-87273938D01*
X90452380Y-87178700D01*
X90500000Y-87035843D01*
X90547619Y-86988224D01*
X91452380Y-86035843D02*
X91452380Y-86607271D01*
X91452380Y-86321557D02*
X90452380Y-86321557D01*
X90595238Y-86416795D01*
X90690476Y-86512033D01*
X90738095Y-86607271D01*
X90452380Y-85702509D02*
X90452380Y-85083462D01*
X90833333Y-85416795D01*
X90833333Y-85273938D01*
X90880952Y-85178700D01*
X90928571Y-85131081D01*
X91023809Y-85083462D01*
X91261904Y-85083462D01*
X91357142Y-85131081D01*
X91404761Y-85178700D01*
X91452380Y-85273938D01*
X91452380Y-85559652D01*
X91404761Y-85654890D01*
X91357142Y-85702509D01*
X98107142Y-82607142D02*
X98059523Y-82654761D01*
X97916666Y-82702380D01*
X97821428Y-82702380D01*
X97678571Y-82654761D01*
X97583333Y-82559523D01*
X97535714Y-82464285D01*
X97488095Y-82273809D01*
X97488095Y-82130952D01*
X97535714Y-81940476D01*
X97583333Y-81845238D01*
X97678571Y-81750000D01*
X97821428Y-81702380D01*
X97916666Y-81702380D01*
X98059523Y-81750000D01*
X98107142Y-81797619D01*
X99059523Y-82702380D02*
X98488095Y-82702380D01*
X98773809Y-82702380D02*
X98773809Y-81702380D01*
X98678571Y-81845238D01*
X98583333Y-81940476D01*
X98488095Y-81988095D01*
X99964285Y-81702380D02*
X99488095Y-81702380D01*
X99440476Y-82178571D01*
X99488095Y-82130952D01*
X99583333Y-82083333D01*
X99821428Y-82083333D01*
X99916666Y-82130952D01*
X99964285Y-82178571D01*
X100011904Y-82273809D01*
X100011904Y-82511904D01*
X99964285Y-82607142D01*
X99916666Y-82654761D01*
X99821428Y-82702380D01*
X99583333Y-82702380D01*
X99488095Y-82654761D01*
X99440476Y-82607142D01*
X100607142Y-88392857D02*
X100654761Y-88440476D01*
X100702380Y-88583333D01*
X100702380Y-88678571D01*
X100654761Y-88821428D01*
X100559523Y-88916666D01*
X100464285Y-88964285D01*
X100273809Y-89011904D01*
X100130952Y-89011904D01*
X99940476Y-88964285D01*
X99845238Y-88916666D01*
X99750000Y-88821428D01*
X99702380Y-88678571D01*
X99702380Y-88583333D01*
X99750000Y-88440476D01*
X99797619Y-88392857D01*
X100702380Y-87440476D02*
X100702380Y-88011904D01*
X100702380Y-87726190D02*
X99702380Y-87726190D01*
X99845238Y-87821428D01*
X99940476Y-87916666D01*
X99988095Y-88011904D01*
X99702380Y-86583333D02*
X99702380Y-86773809D01*
X99750000Y-86869047D01*
X99797619Y-86916666D01*
X99940476Y-87011904D01*
X100130952Y-87059523D01*
X100511904Y-87059523D01*
X100607142Y-87011904D01*
X100654761Y-86964285D01*
X100702380Y-86869047D01*
X100702380Y-86678571D01*
X100654761Y-86583333D01*
X100607142Y-86535714D01*
X100511904Y-86488095D01*
X100273809Y-86488095D01*
X100178571Y-86535714D01*
X100130952Y-86583333D01*
X100083333Y-86678571D01*
X100083333Y-86869047D01*
X100130952Y-86964285D01*
X100178571Y-87011904D01*
X100273809Y-87059523D01*
X98107142Y-81193742D02*
X98059523Y-81241361D01*
X97916666Y-81288980D01*
X97821428Y-81288980D01*
X97678571Y-81241361D01*
X97583333Y-81146123D01*
X97535714Y-81050885D01*
X97488095Y-80860409D01*
X97488095Y-80717552D01*
X97535714Y-80527076D01*
X97583333Y-80431838D01*
X97678571Y-80336600D01*
X97821428Y-80288980D01*
X97916666Y-80288980D01*
X98059523Y-80336600D01*
X98107142Y-80384219D01*
X99059523Y-81288980D02*
X98488095Y-81288980D01*
X98773809Y-81288980D02*
X98773809Y-80288980D01*
X98678571Y-80431838D01*
X98583333Y-80527076D01*
X98488095Y-80574695D01*
X99392857Y-80288980D02*
X100059523Y-80288980D01*
X99630952Y-81288980D01*
X98107142Y-79857142D02*
X98059523Y-79904761D01*
X97916666Y-79952380D01*
X97821428Y-79952380D01*
X97678571Y-79904761D01*
X97583333Y-79809523D01*
X97535714Y-79714285D01*
X97488095Y-79523809D01*
X97488095Y-79380952D01*
X97535714Y-79190476D01*
X97583333Y-79095238D01*
X97678571Y-79000000D01*
X97821428Y-78952380D01*
X97916666Y-78952380D01*
X98059523Y-79000000D01*
X98107142Y-79047619D01*
X99059523Y-79952380D02*
X98488095Y-79952380D01*
X98773809Y-79952380D02*
X98773809Y-78952380D01*
X98678571Y-79095238D01*
X98583333Y-79190476D01*
X98488095Y-79238095D01*
X99630952Y-79380952D02*
X99535714Y-79333333D01*
X99488095Y-79285714D01*
X99440476Y-79190476D01*
X99440476Y-79142857D01*
X99488095Y-79047619D01*
X99535714Y-79000000D01*
X99630952Y-78952380D01*
X99821428Y-78952380D01*
X99916666Y-79000000D01*
X99964285Y-79047619D01*
X100011904Y-79142857D01*
X100011904Y-79190476D01*
X99964285Y-79285714D01*
X99916666Y-79333333D01*
X99821428Y-79380952D01*
X99630952Y-79380952D01*
X99535714Y-79428571D01*
X99488095Y-79476190D01*
X99440476Y-79571428D01*
X99440476Y-79761904D01*
X99488095Y-79857142D01*
X99535714Y-79904761D01*
X99630952Y-79952380D01*
X99821428Y-79952380D01*
X99916666Y-79904761D01*
X99964285Y-79857142D01*
X100011904Y-79761904D01*
X100011904Y-79571428D01*
X99964285Y-79476190D01*
X99916666Y-79428571D01*
X99821428Y-79380952D01*
X94357142Y-86392857D02*
X94404761Y-86440476D01*
X94452380Y-86583333D01*
X94452380Y-86678571D01*
X94404761Y-86821428D01*
X94309523Y-86916666D01*
X94214285Y-86964285D01*
X94023809Y-87011904D01*
X93880952Y-87011904D01*
X93690476Y-86964285D01*
X93595238Y-86916666D01*
X93500000Y-86821428D01*
X93452380Y-86678571D01*
X93452380Y-86583333D01*
X93500000Y-86440476D01*
X93547619Y-86392857D01*
X94452380Y-85440476D02*
X94452380Y-86011904D01*
X94452380Y-85726190D02*
X93452380Y-85726190D01*
X93595238Y-85821428D01*
X93690476Y-85916666D01*
X93738095Y-86011904D01*
X94452380Y-84964285D02*
X94452380Y-84773809D01*
X94404761Y-84678571D01*
X94357142Y-84630952D01*
X94214285Y-84535714D01*
X94023809Y-84488095D01*
X93642857Y-84488095D01*
X93547619Y-84535714D01*
X93500000Y-84583333D01*
X93452380Y-84678571D01*
X93452380Y-84869047D01*
X93500000Y-84964285D01*
X93547619Y-85011904D01*
X93642857Y-85059523D01*
X93880952Y-85059523D01*
X93976190Y-85011904D01*
X94023809Y-84964285D01*
X94071428Y-84869047D01*
X94071428Y-84678571D01*
X94023809Y-84583333D01*
X93976190Y-84535714D01*
X93880952Y-84488095D01*
X94357142Y-83142857D02*
X94404761Y-83190476D01*
X94452380Y-83333333D01*
X94452380Y-83428571D01*
X94404761Y-83571428D01*
X94309523Y-83666666D01*
X94214285Y-83714285D01*
X94023809Y-83761904D01*
X93880952Y-83761904D01*
X93690476Y-83714285D01*
X93595238Y-83666666D01*
X93500000Y-83571428D01*
X93452380Y-83428571D01*
X93452380Y-83333333D01*
X93500000Y-83190476D01*
X93547619Y-83142857D01*
X93547619Y-82761904D02*
X93500000Y-82714285D01*
X93452380Y-82619047D01*
X93452380Y-82380952D01*
X93500000Y-82285714D01*
X93547619Y-82238095D01*
X93642857Y-82190476D01*
X93738095Y-82190476D01*
X93880952Y-82238095D01*
X94452380Y-82809523D01*
X94452380Y-82190476D01*
X93452380Y-81571428D02*
X93452380Y-81476190D01*
X93500000Y-81380952D01*
X93547619Y-81333333D01*
X93642857Y-81285714D01*
X93833333Y-81238095D01*
X94071428Y-81238095D01*
X94261904Y-81285714D01*
X94357142Y-81333333D01*
X94404761Y-81380952D01*
X94452380Y-81476190D01*
X94452380Y-81571428D01*
X94404761Y-81666666D01*
X94357142Y-81714285D01*
X94261904Y-81761904D01*
X94071428Y-81809523D01*
X93833333Y-81809523D01*
X93642857Y-81761904D01*
X93547619Y-81714285D01*
X93500000Y-81666666D01*
X93452380Y-81571428D01*
X102857142Y-85642857D02*
X102904761Y-85690476D01*
X102952380Y-85833333D01*
X102952380Y-85928571D01*
X102904761Y-86071428D01*
X102809523Y-86166666D01*
X102714285Y-86214285D01*
X102523809Y-86261904D01*
X102380952Y-86261904D01*
X102190476Y-86214285D01*
X102095238Y-86166666D01*
X102000000Y-86071428D01*
X101952380Y-85928571D01*
X101952380Y-85833333D01*
X102000000Y-85690476D01*
X102047619Y-85642857D01*
X102047619Y-85261904D02*
X102000000Y-85214285D01*
X101952380Y-85119047D01*
X101952380Y-84880952D01*
X102000000Y-84785714D01*
X102047619Y-84738095D01*
X102142857Y-84690476D01*
X102238095Y-84690476D01*
X102380952Y-84738095D01*
X102952380Y-85309523D01*
X102952380Y-84690476D01*
X102952380Y-83738095D02*
X102952380Y-84309523D01*
X102952380Y-84023809D02*
X101952380Y-84023809D01*
X102095238Y-84119047D01*
X102190476Y-84214285D01*
X102238095Y-84309523D01*
X102857142Y-93142857D02*
X102904761Y-93190476D01*
X102952380Y-93333333D01*
X102952380Y-93428571D01*
X102904761Y-93571428D01*
X102809523Y-93666666D01*
X102714285Y-93714285D01*
X102523809Y-93761904D01*
X102380952Y-93761904D01*
X102190476Y-93714285D01*
X102095238Y-93666666D01*
X102000000Y-93571428D01*
X101952380Y-93428571D01*
X101952380Y-93333333D01*
X102000000Y-93190476D01*
X102047619Y-93142857D01*
X102047619Y-92761904D02*
X102000000Y-92714285D01*
X101952380Y-92619047D01*
X101952380Y-92380952D01*
X102000000Y-92285714D01*
X102047619Y-92238095D01*
X102142857Y-92190476D01*
X102238095Y-92190476D01*
X102380952Y-92238095D01*
X102952380Y-92809523D01*
X102952380Y-92190476D01*
X102047619Y-91809523D02*
X102000000Y-91761904D01*
X101952380Y-91666666D01*
X101952380Y-91428571D01*
X102000000Y-91333333D01*
X102047619Y-91285714D01*
X102142857Y-91238095D01*
X102238095Y-91238095D01*
X102380952Y-91285714D01*
X102952380Y-91857142D01*
X102952380Y-91238095D01*
X91357142Y-92642857D02*
X91404761Y-92690476D01*
X91452380Y-92833333D01*
X91452380Y-92928571D01*
X91404761Y-93071428D01*
X91309523Y-93166666D01*
X91214285Y-93214285D01*
X91023809Y-93261904D01*
X90880952Y-93261904D01*
X90690476Y-93214285D01*
X90595238Y-93166666D01*
X90500000Y-93071428D01*
X90452380Y-92928571D01*
X90452380Y-92833333D01*
X90500000Y-92690476D01*
X90547619Y-92642857D01*
X90547619Y-92261904D02*
X90500000Y-92214285D01*
X90452380Y-92119047D01*
X90452380Y-91880952D01*
X90500000Y-91785714D01*
X90547619Y-91738095D01*
X90642857Y-91690476D01*
X90738095Y-91690476D01*
X90880952Y-91738095D01*
X91452380Y-92309523D01*
X91452380Y-91690476D01*
X90452380Y-91357142D02*
X90452380Y-90738095D01*
X90833333Y-91071428D01*
X90833333Y-90928571D01*
X90880952Y-90833333D01*
X90928571Y-90785714D01*
X91023809Y-90738095D01*
X91261904Y-90738095D01*
X91357142Y-90785714D01*
X91404761Y-90833333D01*
X91452380Y-90928571D01*
X91452380Y-91214285D01*
X91404761Y-91309523D01*
X91357142Y-91357142D01*
X88833333Y-102202380D02*
X88500000Y-101726190D01*
X88261904Y-102202380D02*
X88261904Y-101202380D01*
X88642857Y-101202380D01*
X88738095Y-101250000D01*
X88785714Y-101297619D01*
X88833333Y-101392857D01*
X88833333Y-101535714D01*
X88785714Y-101630952D01*
X88738095Y-101678571D01*
X88642857Y-101726190D01*
X88261904Y-101726190D01*
X89166666Y-101202380D02*
X89833333Y-102202380D01*
X89833333Y-101202380D02*
X89166666Y-102202380D01*
X88238095Y-106202380D02*
X88809523Y-106202380D01*
X88523809Y-107202380D02*
X88523809Y-106202380D01*
X89047619Y-106202380D02*
X89714285Y-107202380D01*
X89714285Y-106202380D02*
X89047619Y-107202380D01*
X111404761Y-107857142D02*
X111452380Y-107714285D01*
X111452380Y-107476190D01*
X111404761Y-107380952D01*
X111357142Y-107333333D01*
X111261904Y-107285714D01*
X111166666Y-107285714D01*
X111071428Y-107333333D01*
X111023809Y-107380952D01*
X110976190Y-107476190D01*
X110928571Y-107666666D01*
X110880952Y-107761904D01*
X110833333Y-107809523D01*
X110738095Y-107857142D01*
X110642857Y-107857142D01*
X110547619Y-107809523D01*
X110500000Y-107761904D01*
X110452380Y-107666666D01*
X110452380Y-107428571D01*
X110500000Y-107285714D01*
X110452380Y-106952380D02*
X111452380Y-106714285D01*
X110738095Y-106523809D01*
X111452380Y-106333333D01*
X110452380Y-106095238D01*
X111452380Y-105714285D02*
X110452380Y-105714285D01*
X110452380Y-105476190D01*
X110500000Y-105333333D01*
X110595238Y-105238095D01*
X110690476Y-105190476D01*
X110880952Y-105142857D01*
X111023809Y-105142857D01*
X111214285Y-105190476D01*
X111309523Y-105238095D01*
X111404761Y-105333333D01*
X111452380Y-105476190D01*
X111452380Y-105714285D01*
X92964285Y-77404761D02*
X93107142Y-77452380D01*
X93345238Y-77452380D01*
X93440476Y-77404761D01*
X93488095Y-77357142D01*
X93535714Y-77261904D01*
X93535714Y-77166666D01*
X93488095Y-77071428D01*
X93440476Y-77023809D01*
X93345238Y-76976190D01*
X93154761Y-76928571D01*
X93059523Y-76880952D01*
X93011904Y-76833333D01*
X92964285Y-76738095D01*
X92964285Y-76642857D01*
X93011904Y-76547619D01*
X93059523Y-76500000D01*
X93154761Y-76452380D01*
X93392857Y-76452380D01*
X93535714Y-76500000D01*
X93964285Y-77452380D02*
X93964285Y-76452380D01*
X94297619Y-77166666D01*
X94630952Y-76452380D01*
X94630952Y-77452380D01*
X95059523Y-77166666D02*
X95535714Y-77166666D01*
X94964285Y-77452380D02*
X95297619Y-76452380D01*
X95630952Y-77452380D01*
X84952380Y-102516666D02*
X84476190Y-102850000D01*
X84952380Y-103088095D02*
X83952380Y-103088095D01*
X83952380Y-102707142D01*
X84000000Y-102611904D01*
X84047619Y-102564285D01*
X84142857Y-102516666D01*
X84285714Y-102516666D01*
X84380952Y-102564285D01*
X84428571Y-102611904D01*
X84476190Y-102707142D01*
X84476190Y-103088095D01*
X84047619Y-102135714D02*
X84000000Y-102088095D01*
X83952380Y-101992857D01*
X83952380Y-101754761D01*
X84000000Y-101659523D01*
X84047619Y-101611904D01*
X84142857Y-101564285D01*
X84238095Y-101564285D01*
X84380952Y-101611904D01*
X84952380Y-102183333D01*
X84952380Y-101564285D01*
X84952380Y-106266666D02*
X84476190Y-106600000D01*
X84952380Y-106838095D02*
X83952380Y-106838095D01*
X83952380Y-106457142D01*
X84000000Y-106361904D01*
X84047619Y-106314285D01*
X84142857Y-106266666D01*
X84285714Y-106266666D01*
X84380952Y-106314285D01*
X84428571Y-106361904D01*
X84476190Y-106457142D01*
X84476190Y-106838095D01*
X83952380Y-105933333D02*
X83952380Y-105314285D01*
X84333333Y-105647619D01*
X84333333Y-105504761D01*
X84380952Y-105409523D01*
X84428571Y-105361904D01*
X84523809Y-105314285D01*
X84761904Y-105314285D01*
X84857142Y-105361904D01*
X84904761Y-105409523D01*
X84952380Y-105504761D01*
X84952380Y-105790476D01*
X84904761Y-105885714D01*
X84857142Y-105933333D01*
X91452380Y-89066666D02*
X90976190Y-89400000D01*
X91452380Y-89638095D02*
X90452380Y-89638095D01*
X90452380Y-89257142D01*
X90500000Y-89161904D01*
X90547619Y-89114285D01*
X90642857Y-89066666D01*
X90785714Y-89066666D01*
X90880952Y-89114285D01*
X90928571Y-89161904D01*
X90976190Y-89257142D01*
X90976190Y-89638095D01*
X90785714Y-88209523D02*
X91452380Y-88209523D01*
X90404761Y-88447619D02*
X91119047Y-88685714D01*
X91119047Y-88066666D01*
X92988095Y-93702380D02*
X92988095Y-94511904D01*
X93035714Y-94607142D01*
X93083333Y-94654761D01*
X93178571Y-94702380D01*
X93369047Y-94702380D01*
X93464285Y-94654761D01*
X93511904Y-94607142D01*
X93559523Y-94511904D01*
X93559523Y-93702380D01*
X93940476Y-93702380D02*
X94559523Y-93702380D01*
X94226190Y-94083333D01*
X94369047Y-94083333D01*
X94464285Y-94130952D01*
X94511904Y-94178571D01*
X94559523Y-94273809D01*
X94559523Y-94511904D01*
X94511904Y-94607142D01*
X94464285Y-94654761D01*
X94369047Y-94702380D01*
X94083333Y-94702380D01*
X93988095Y-94654761D01*
X93940476Y-94607142D01*
X106976190Y-89226190D02*
X107452380Y-89226190D01*
X106452380Y-89559523D02*
X106976190Y-89226190D01*
X106452380Y-88892857D01*
X107452380Y-88035714D02*
X107452380Y-88607142D01*
X107452380Y-88321428D02*
X106452380Y-88321428D01*
X106595238Y-88416666D01*
X106690476Y-88511904D01*
X106738095Y-88607142D01*
X107702380Y-110702380D02*
X107226190Y-111035714D01*
X107702380Y-111273809D02*
X106702380Y-111273809D01*
X106702380Y-110892857D01*
X106750000Y-110797619D01*
X106797619Y-110750000D01*
X106892857Y-110702380D01*
X107035714Y-110702380D01*
X107130952Y-110750000D01*
X107178571Y-110797619D01*
X107226190Y-110892857D01*
X107226190Y-111273809D01*
X107178571Y-110273809D02*
X107178571Y-109940476D01*
X107702380Y-109797619D02*
X107702380Y-110273809D01*
X106702380Y-110273809D01*
X106702380Y-109797619D01*
X107654761Y-109416666D02*
X107702380Y-109273809D01*
X107702380Y-109035714D01*
X107654761Y-108940476D01*
X107607142Y-108892857D01*
X107511904Y-108845238D01*
X107416666Y-108845238D01*
X107321428Y-108892857D01*
X107273809Y-108940476D01*
X107226190Y-109035714D01*
X107178571Y-109226190D01*
X107130952Y-109321428D01*
X107083333Y-109369047D01*
X106988095Y-109416666D01*
X106892857Y-109416666D01*
X106797619Y-109369047D01*
X106750000Y-109321428D01*
X106702380Y-109226190D01*
X106702380Y-108988095D01*
X106750000Y-108845238D01*
X107178571Y-108416666D02*
X107178571Y-108083333D01*
X107702380Y-107940476D02*
X107702380Y-108416666D01*
X106702380Y-108416666D01*
X106702380Y-107940476D01*
X106702380Y-107654761D02*
X106702380Y-107083333D01*
X107702380Y-107369047D02*
X106702380Y-107369047D01*
X90738095Y-110702380D02*
X90738095Y-111511904D01*
X90785714Y-111607142D01*
X90833333Y-111654761D01*
X90928571Y-111702380D01*
X91119047Y-111702380D01*
X91214285Y-111654761D01*
X91261904Y-111607142D01*
X91309523Y-111511904D01*
X91309523Y-110702380D01*
X91738095Y-111654761D02*
X91880952Y-111702380D01*
X92119047Y-111702380D01*
X92214285Y-111654761D01*
X92261904Y-111607142D01*
X92309523Y-111511904D01*
X92309523Y-111416666D01*
X92261904Y-111321428D01*
X92214285Y-111273809D01*
X92119047Y-111226190D01*
X91928571Y-111178571D01*
X91833333Y-111130952D01*
X91785714Y-111083333D01*
X91738095Y-110988095D01*
X91738095Y-110892857D01*
X91785714Y-110797619D01*
X91833333Y-110750000D01*
X91928571Y-110702380D01*
X92166666Y-110702380D01*
X92309523Y-110750000D01*
X93071428Y-111178571D02*
X93214285Y-111226190D01*
X93261904Y-111273809D01*
X93309523Y-111369047D01*
X93309523Y-111511904D01*
X93261904Y-111607142D01*
X93214285Y-111654761D01*
X93119047Y-111702380D01*
X92738095Y-111702380D01*
X92738095Y-110702380D01*
X93071428Y-110702380D01*
X93166666Y-110750000D01*
X93214285Y-110797619D01*
X93261904Y-110892857D01*
X93261904Y-110988095D01*
X93214285Y-111083333D01*
X93166666Y-111130952D01*
X93071428Y-111178571D01*
X92738095Y-111178571D01*
M02*
