M48
;DRILL file {KiCad (2017-05-16 revision e79f97860)-master} date Wed May 17 23:37:22 2017
;FORMAT={-:-/ absolute / metric / decimal}
FMAT,2
METRIC,TZ
T1C0.400
T2C1.000
T3C1.016
T4C1.500
T5C1.100
%
G90
G05
M71
T1
X84.9Y-101.2
X85.Y-80.
X85.Y-86.
X85.Y-90.
X85.Y-94.
X85.Y-97.
X87.Y-88.
X87.Y-92.
X87.Y-96.
X87.6Y-101.2
X88.Y-77.
X88.Y-84.
X89.Y-90.
X90.Y-86.
X90.5Y-92.8
X91.45Y-88.4
X91.541Y-100.85
X91.8Y-107.
X92.Y-84.
X92.Y-111.
X92.5Y-93.6
X92.5Y-95.3
X93.522Y-96.358
X93.65Y-98.2
X94.234Y-95.647
X94.75Y-107.5
X94.85Y-104.25
X95.032Y-89.552
X95.032Y-91.227
X95.341Y-108.383
X95.9Y-90.4
X96.066Y-95.559
X96.25Y-108.8
X96.707Y-89.552
X96.707Y-91.227
X96.813Y-94.604
X97.Y-78.
X97.281Y-108.422
X97.3Y-99.65
X97.808Y-94.508
X97.987Y-107.687
X98.Y-102.
X98.198Y-92.702
X98.808Y-94.526
X99.Y-76.
X99.Y-80.
X99.Y-84.
X99.5Y-91.7
X100.1Y-95.8
X100.15Y-87.95
X100.25Y-105.1
X100.4Y-101.35
X100.6Y-91.5
X100.75Y-94.6
X100.75Y-94.6
X100.856Y-99.842
X101.Y-78.
X101.Y-82.
X101.478Y-87.7
X101.6Y-88.85
X102.2Y-92.
X102.2Y-95.8
X102.2Y-98.2
X102.7Y-108.2
X103.Y-76.
X103.Y-80.
X103.Y-84.
X103.25Y-111.25
X104.2Y-101.05
X104.92Y-100.35
X105.Y-78.
X105.Y-82.
X105.3Y-91.7
X105.725Y-98.425
X106.Y-114.
X107.Y-76.
X107.Y-80.
X107.Y-84.
X107.Y-110.
X107.254Y-101.854
X107.46Y-87.396
X108.Y-93.
X108.5Y-95.
X109.Y-78.
X109.Y-82.
X109.Y-86.
X109.Y-90.
X109.Y-108.
X111.Y-76.
X111.Y-80.
X111.Y-84.
X111.Y-88.
X111.Y-106.
T3
X110.9Y-93.27
X110.9Y-95.81
X110.9Y-98.35
X110.9Y-100.89
X110.9Y-103.43
T4
X86.16Y-77.17
X86.16Y-82.25
X88.7Y-79.71
X91.24Y-77.17
X91.24Y-82.25
T5
X95.75Y-114.3
X100.25Y-114.3
T2
X92.3Y-113.55G85X92.3Y-115.05
G05
X103.7Y-113.55G85X103.7Y-115.05
G05
T0
M30
