G04 #@! TF.FileFunction,Legend,Bot*
%FSLAX46Y46*%
G04 Gerber Fmt 4.6, Leading zero omitted, Abs format (unit mm)*
G04 Created by KiCad (PCBNEW (2016-08-08 BZR 7014)-stable) date Tue Aug  9 20:31:53 2016*
%MOMM*%
%LPD*%
G01*
G04 APERTURE LIST*
%ADD10C,0.100000*%
%ADD11C,0.150000*%
G04 APERTURE END LIST*
D10*
D11*
X88100000Y-98650000D02*
X89100000Y-98650000D01*
X89100000Y-100350000D02*
X88100000Y-100350000D01*
X88800000Y-100625000D02*
X89300000Y-100625000D01*
X89300000Y-101575000D02*
X88800000Y-101575000D01*
X104875000Y-103950000D02*
X103875000Y-103950000D01*
X103875000Y-102250000D02*
X104875000Y-102250000D01*
X88950000Y-95925000D02*
X89950000Y-95925000D01*
X89950000Y-97625000D02*
X88950000Y-97625000D01*
X105625000Y-109050000D02*
X104625000Y-109050000D01*
X104625000Y-107350000D02*
X105625000Y-107350000D01*
X87800000Y-94325000D02*
X87800000Y-93325000D01*
X89500000Y-93325000D02*
X89500000Y-94325000D01*
X84725000Y-98650000D02*
X84725000Y-99850000D01*
X86475000Y-99850000D02*
X86475000Y-98650000D01*
X91025000Y-93950000D02*
X91025000Y-94450000D01*
X89975000Y-94450000D02*
X89975000Y-93950000D01*
X101275000Y-103700000D02*
X101275000Y-102500000D01*
X99525000Y-102500000D02*
X99525000Y-103700000D01*
X83844000Y-104776000D02*
X83844000Y-101728000D01*
X83844000Y-101728000D02*
X90956000Y-101728000D01*
X90956000Y-101728000D02*
X90956000Y-104776000D01*
X83844000Y-107824000D02*
X83844000Y-108586000D01*
X83844000Y-108586000D02*
X85368000Y-110872000D01*
X85368000Y-110872000D02*
X89432000Y-110872000D01*
X89432000Y-110872000D02*
X90956000Y-108586000D01*
X90956000Y-108586000D02*
X90956000Y-107824000D01*
X103750000Y-86725000D02*
X104250000Y-86725000D01*
X104250000Y-87675000D02*
X103750000Y-87675000D01*
X91416666Y-99807142D02*
X91464285Y-99854761D01*
X91607142Y-99902380D01*
X91702380Y-99902380D01*
X91845238Y-99854761D01*
X91940476Y-99759523D01*
X91988095Y-99664285D01*
X92035714Y-99473809D01*
X92035714Y-99330952D01*
X91988095Y-99140476D01*
X91940476Y-99045238D01*
X91845238Y-98950000D01*
X91702380Y-98902380D01*
X91607142Y-98902380D01*
X91464285Y-98950000D01*
X91416666Y-98997619D01*
X90464285Y-99902380D02*
X91035714Y-99902380D01*
X90750000Y-99902380D02*
X90750000Y-98902380D01*
X90845238Y-99045238D01*
X90940476Y-99140476D01*
X91035714Y-99188095D01*
X91416666Y-101357142D02*
X91464285Y-101404761D01*
X91607142Y-101452380D01*
X91702380Y-101452380D01*
X91845238Y-101404761D01*
X91940476Y-101309523D01*
X91988095Y-101214285D01*
X92035714Y-101023809D01*
X92035714Y-100880952D01*
X91988095Y-100690476D01*
X91940476Y-100595238D01*
X91845238Y-100500000D01*
X91702380Y-100452380D01*
X91607142Y-100452380D01*
X91464285Y-100500000D01*
X91416666Y-100547619D01*
X91035714Y-100547619D02*
X90988095Y-100500000D01*
X90892857Y-100452380D01*
X90654761Y-100452380D01*
X90559523Y-100500000D01*
X90511904Y-100547619D01*
X90464285Y-100642857D01*
X90464285Y-100738095D01*
X90511904Y-100880952D01*
X91083333Y-101452380D01*
X90464285Y-101452380D01*
X104541666Y-101857142D02*
X104589285Y-101904761D01*
X104732142Y-101952380D01*
X104827380Y-101952380D01*
X104970238Y-101904761D01*
X105065476Y-101809523D01*
X105113095Y-101714285D01*
X105160714Y-101523809D01*
X105160714Y-101380952D01*
X105113095Y-101190476D01*
X105065476Y-101095238D01*
X104970238Y-101000000D01*
X104827380Y-100952380D01*
X104732142Y-100952380D01*
X104589285Y-101000000D01*
X104541666Y-101047619D01*
X104208333Y-100952380D02*
X103589285Y-100952380D01*
X103922619Y-101333333D01*
X103779761Y-101333333D01*
X103684523Y-101380952D01*
X103636904Y-101428571D01*
X103589285Y-101523809D01*
X103589285Y-101761904D01*
X103636904Y-101857142D01*
X103684523Y-101904761D01*
X103779761Y-101952380D01*
X104065476Y-101952380D01*
X104160714Y-101904761D01*
X104208333Y-101857142D01*
X92416666Y-97107142D02*
X92464285Y-97154761D01*
X92607142Y-97202380D01*
X92702380Y-97202380D01*
X92845238Y-97154761D01*
X92940476Y-97059523D01*
X92988095Y-96964285D01*
X93035714Y-96773809D01*
X93035714Y-96630952D01*
X92988095Y-96440476D01*
X92940476Y-96345238D01*
X92845238Y-96250000D01*
X92702380Y-96202380D01*
X92607142Y-96202380D01*
X92464285Y-96250000D01*
X92416666Y-96297619D01*
X91559523Y-96202380D02*
X91750000Y-96202380D01*
X91845238Y-96250000D01*
X91892857Y-96297619D01*
X91988095Y-96440476D01*
X92035714Y-96630952D01*
X92035714Y-97011904D01*
X91988095Y-97107142D01*
X91940476Y-97154761D01*
X91845238Y-97202380D01*
X91654761Y-97202380D01*
X91559523Y-97154761D01*
X91511904Y-97107142D01*
X91464285Y-97011904D01*
X91464285Y-96773809D01*
X91511904Y-96678571D01*
X91559523Y-96630952D01*
X91654761Y-96583333D01*
X91845238Y-96583333D01*
X91940476Y-96630952D01*
X91988095Y-96678571D01*
X92035714Y-96773809D01*
X105291666Y-106857142D02*
X105339285Y-106904761D01*
X105482142Y-106952380D01*
X105577380Y-106952380D01*
X105720238Y-106904761D01*
X105815476Y-106809523D01*
X105863095Y-106714285D01*
X105910714Y-106523809D01*
X105910714Y-106380952D01*
X105863095Y-106190476D01*
X105815476Y-106095238D01*
X105720238Y-106000000D01*
X105577380Y-105952380D01*
X105482142Y-105952380D01*
X105339285Y-106000000D01*
X105291666Y-106047619D01*
X104720238Y-106380952D02*
X104815476Y-106333333D01*
X104863095Y-106285714D01*
X104910714Y-106190476D01*
X104910714Y-106142857D01*
X104863095Y-106047619D01*
X104815476Y-106000000D01*
X104720238Y-105952380D01*
X104529761Y-105952380D01*
X104434523Y-106000000D01*
X104386904Y-106047619D01*
X104339285Y-106142857D01*
X104339285Y-106190476D01*
X104386904Y-106285714D01*
X104434523Y-106333333D01*
X104529761Y-106380952D01*
X104720238Y-106380952D01*
X104815476Y-106428571D01*
X104863095Y-106476190D01*
X104910714Y-106571428D01*
X104910714Y-106761904D01*
X104863095Y-106857142D01*
X104815476Y-106904761D01*
X104720238Y-106952380D01*
X104529761Y-106952380D01*
X104434523Y-106904761D01*
X104386904Y-106857142D01*
X104339285Y-106761904D01*
X104339285Y-106571428D01*
X104386904Y-106476190D01*
X104434523Y-106428571D01*
X104529761Y-106380952D01*
X87357142Y-93182142D02*
X87404761Y-93134523D01*
X87452380Y-92991666D01*
X87452380Y-92896428D01*
X87404761Y-92753571D01*
X87309523Y-92658333D01*
X87214285Y-92610714D01*
X87023809Y-92563095D01*
X86880952Y-92563095D01*
X86690476Y-92610714D01*
X86595238Y-92658333D01*
X86500000Y-92753571D01*
X86452380Y-92896428D01*
X86452380Y-92991666D01*
X86500000Y-93134523D01*
X86547619Y-93182142D01*
X87452380Y-94134523D02*
X87452380Y-93563095D01*
X87452380Y-93848809D02*
X86452380Y-93848809D01*
X86595238Y-93753571D01*
X86690476Y-93658333D01*
X86738095Y-93563095D01*
X86785714Y-94991666D02*
X87452380Y-94991666D01*
X86404761Y-94753571D02*
X87119047Y-94515476D01*
X87119047Y-95134523D01*
X85202380Y-95416666D02*
X85916666Y-95416666D01*
X86059523Y-95369047D01*
X86154761Y-95273809D01*
X86202380Y-95130952D01*
X86202380Y-95035714D01*
X86202380Y-95892857D02*
X85202380Y-95892857D01*
X85202380Y-96273809D01*
X85250000Y-96369047D01*
X85297619Y-96416666D01*
X85392857Y-96464285D01*
X85535714Y-96464285D01*
X85630952Y-96416666D01*
X85678571Y-96369047D01*
X85726190Y-96273809D01*
X85726190Y-95892857D01*
X86202380Y-97416666D02*
X86202380Y-96845238D01*
X86202380Y-97130952D02*
X85202380Y-97130952D01*
X85345238Y-97035714D01*
X85440476Y-96940476D01*
X85488095Y-96845238D01*
X92452380Y-94033333D02*
X92452380Y-93557142D01*
X91452380Y-93557142D01*
X92452380Y-94890476D02*
X92452380Y-94319047D01*
X92452380Y-94604761D02*
X91452380Y-94604761D01*
X91595238Y-94509523D01*
X91690476Y-94414285D01*
X91738095Y-94319047D01*
X99202380Y-102933333D02*
X98726190Y-102600000D01*
X99202380Y-102361904D02*
X98202380Y-102361904D01*
X98202380Y-102742857D01*
X98250000Y-102838095D01*
X98297619Y-102885714D01*
X98392857Y-102933333D01*
X98535714Y-102933333D01*
X98630952Y-102885714D01*
X98678571Y-102838095D01*
X98726190Y-102742857D01*
X98726190Y-102361904D01*
X99202380Y-103885714D02*
X99202380Y-103314285D01*
X99202380Y-103600000D02*
X98202380Y-103600000D01*
X98345238Y-103504761D01*
X98440476Y-103409523D01*
X98488095Y-103314285D01*
X92761904Y-102050380D02*
X92761904Y-102859904D01*
X92714285Y-102955142D01*
X92666666Y-103002761D01*
X92571428Y-103050380D01*
X92380952Y-103050380D01*
X92285714Y-103002761D01*
X92238095Y-102955142D01*
X92190476Y-102859904D01*
X92190476Y-102050380D01*
X91190476Y-103050380D02*
X91761904Y-103050380D01*
X91476190Y-103050380D02*
X91476190Y-102050380D01*
X91571428Y-102193238D01*
X91666666Y-102288476D01*
X91761904Y-102336095D01*
X104833333Y-85452380D02*
X104833333Y-86166666D01*
X104880952Y-86309523D01*
X104976190Y-86404761D01*
X105119047Y-86452380D01*
X105214285Y-86452380D01*
X104357142Y-86452380D02*
X104357142Y-85452380D01*
X103976190Y-85452380D01*
X103880952Y-85500000D01*
X103833333Y-85547619D01*
X103785714Y-85642857D01*
X103785714Y-85785714D01*
X103833333Y-85880952D01*
X103880952Y-85928571D01*
X103976190Y-85976190D01*
X104357142Y-85976190D01*
X102880952Y-85452380D02*
X103357142Y-85452380D01*
X103404761Y-85928571D01*
X103357142Y-85880952D01*
X103261904Y-85833333D01*
X103023809Y-85833333D01*
X102928571Y-85880952D01*
X102880952Y-85928571D01*
X102833333Y-86023809D01*
X102833333Y-86261904D01*
X102880952Y-86357142D01*
X102928571Y-86404761D01*
X103023809Y-86452380D01*
X103261904Y-86452380D01*
X103357142Y-86404761D01*
X103404761Y-86357142D01*
M02*
