G04 #@! TF.GenerationSoftware,KiCad,Pcbnew,(2017-05-16 revision e79f97860)-master*
G04 #@! TF.CreationDate,2017-05-17T23:36:55+07:00*
G04 #@! TF.ProjectId,dongle,646F6E676C652E6B696361645F706362,rev?*
G04 #@! TF.FileFunction,Copper,L2,Bot,Signal*
G04 #@! TF.FilePolarity,Positive*
%FSLAX46Y46*%
G04 Gerber Fmt 4.6, Leading zero omitted, Abs format (unit mm)*
G04 Created by KiCad (PCBNEW (2017-05-16 revision e79f97860)-master) date Wed May 17 23:36:55 2017*
%MOMM*%
%LPD*%
G01*
G04 APERTURE LIST*
%ADD10C,0.100000*%
%ADD11O,1.600000X4.000000*%
%ADD12R,1.000000X1.250000*%
%ADD13R,0.600000X0.500000*%
%ADD14R,1.250000X1.000000*%
%ADD15R,1.300000X0.700000*%
%ADD16R,0.600000X0.400000*%
%ADD17R,2.032000X1.727200*%
%ADD18O,2.032000X1.727200*%
%ADD19R,2.000000X2.000000*%
%ADD20C,2.300000*%
%ADD21R,3.657600X2.032000*%
%ADD22R,1.016000X2.032000*%
%ADD23C,0.800000*%
%ADD24C,0.254000*%
%ADD25C,0.203200*%
%ADD26C,0.381000*%
%ADD27C,0.508000*%
%ADD28C,0.304800*%
%ADD29C,0.152400*%
G04 APERTURE END LIST*
D10*
D11*
X103700000Y-114300000D03*
X92300000Y-114300000D03*
D12*
X89600000Y-99500000D03*
X87600000Y-99500000D03*
D13*
X89600000Y-101100000D03*
X88500000Y-101100000D03*
D12*
X103375000Y-103100000D03*
X105375000Y-103100000D03*
X90450000Y-96775000D03*
X88450000Y-96775000D03*
X104125000Y-108200000D03*
X106125000Y-108200000D03*
D14*
X88650000Y-92825000D03*
X88650000Y-94825000D03*
D15*
X85600000Y-100200000D03*
X85600000Y-98300000D03*
D16*
X90500000Y-94650000D03*
X90500000Y-93750000D03*
D17*
X110900000Y-93270000D03*
D18*
X110900000Y-95810000D03*
X110900000Y-98350000D03*
X110900000Y-100890000D03*
X110900000Y-103430000D03*
D19*
X91240000Y-77170000D03*
X86160000Y-77170000D03*
X86160000Y-82250000D03*
X91240000Y-82250000D03*
D20*
X88700000Y-79710000D03*
D15*
X100400000Y-102150000D03*
X100400000Y-104050000D03*
D21*
X87400000Y-109602000D03*
D22*
X87400000Y-102998000D03*
X89686000Y-102998000D03*
X85114000Y-102998000D03*
D13*
X104550000Y-87200000D03*
X103450000Y-87200000D03*
D23*
X106000000Y-114000000D03*
X107000000Y-110000000D03*
X111000000Y-106000000D03*
X109000000Y-108000000D03*
X108500000Y-95000000D03*
X92000000Y-111000018D03*
X95900000Y-90400000D03*
X84899997Y-101200003D03*
X87600000Y-101200000D03*
X88000000Y-77000000D03*
X85000000Y-80000000D03*
X98000000Y-102000000D03*
X108000000Y-93000000D03*
X111000000Y-88000000D03*
X109000000Y-90000000D03*
X109000000Y-86000000D03*
X111000000Y-84000000D03*
X107000000Y-84000000D03*
X103000000Y-84000000D03*
X109000000Y-82000000D03*
X105000000Y-82000000D03*
X101000000Y-82000000D03*
X111000000Y-80000000D03*
X107000000Y-80000000D03*
X103000000Y-80000000D03*
X111000000Y-76000000D03*
X107000000Y-76000000D03*
X103000000Y-76000000D03*
X109000000Y-78000000D03*
X105000000Y-78000000D03*
X101000000Y-78000000D03*
X97000000Y-78000000D03*
X99000000Y-76000000D03*
X99000000Y-80000000D03*
X99000000Y-84000000D03*
X85000000Y-97000000D03*
X87000000Y-96000000D03*
X85000000Y-94000000D03*
X88000000Y-84000000D03*
X85000000Y-86000000D03*
X87000000Y-92000000D03*
X85000000Y-90000000D03*
X87000000Y-88000000D03*
X89000000Y-90000000D03*
X90000000Y-86000000D03*
X92000000Y-84000000D03*
X100856000Y-99842000D03*
X97300000Y-99650000D03*
X94850000Y-104250000D03*
X100250000Y-105100000D03*
X102200000Y-92000000D03*
X105300002Y-91700000D03*
X98197950Y-92702050D03*
X92500000Y-93600000D03*
X105725000Y-98425000D03*
X96707500Y-91227500D03*
X96707500Y-89552500D03*
X95032500Y-89552500D03*
X95032500Y-91227500D03*
X91450000Y-88400000D03*
X100150000Y-87950000D03*
X101600000Y-88850000D03*
X103250000Y-111250000D03*
X102200000Y-95800000D03*
X102200000Y-98200000D03*
X102700002Y-108200000D03*
X91800000Y-107000000D03*
X93650000Y-98200000D03*
X107253886Y-101853886D03*
X100750000Y-94600000D03*
X100750000Y-94600000D03*
X90500000Y-92800000D03*
X101477607Y-87700000D03*
X100400000Y-101350000D03*
X107460000Y-87396000D03*
X100100000Y-95800000D03*
X97987347Y-107687347D03*
X94234080Y-95646517D03*
X91540510Y-100850000D03*
X104200000Y-101050000D03*
X100600000Y-91500000D03*
X104920000Y-100350008D03*
X99500000Y-91700000D03*
X98807842Y-94526444D03*
X97281184Y-108422254D03*
X97808000Y-94508000D03*
X96250000Y-108800000D03*
X95341139Y-108382897D03*
X96812568Y-94603590D03*
X94750000Y-107500000D03*
X96065784Y-95558523D03*
X92500000Y-95299998D03*
X93522380Y-96358217D03*
D24*
X108000000Y-93000000D02*
X106600002Y-93000000D01*
X106600002Y-93000000D02*
X105300002Y-91700000D01*
X108500000Y-95000000D02*
X108500000Y-93500000D01*
X108500000Y-93500000D02*
X108000000Y-93000000D01*
X110900000Y-98350000D02*
X109630000Y-98350000D01*
X109630000Y-98350000D02*
X108500000Y-97220000D01*
X108500000Y-97220000D02*
X108500000Y-95565685D01*
X108500000Y-95565685D02*
X108500000Y-95000000D01*
D25*
X84899997Y-101765688D02*
X84899997Y-101200003D01*
X84899997Y-103185997D02*
X84899997Y-101765688D01*
X85114000Y-103400000D02*
X84899997Y-103185997D01*
D26*
X92500000Y-93600000D02*
X92660000Y-93600000D01*
X92660000Y-93600000D02*
X95032500Y-91227500D01*
X110900000Y-98350000D02*
X110747600Y-98350000D01*
D25*
X110900000Y-98350000D02*
X105800000Y-98350000D01*
X105800000Y-98350000D02*
X105725000Y-98425000D01*
D27*
X101600000Y-88850000D02*
X101050000Y-88850000D01*
X101050000Y-88850000D02*
X100150000Y-87950000D01*
D26*
X103250000Y-111250000D02*
X94750000Y-111250000D01*
X94750000Y-111250000D02*
X89686000Y-106186000D01*
X89686000Y-106186000D02*
X89686000Y-102998000D01*
D28*
X89600000Y-101100000D02*
X89600000Y-99500000D01*
X89686000Y-102998000D02*
X89686000Y-101186000D01*
X89686000Y-101186000D02*
X89600000Y-101100000D01*
D26*
X102700002Y-108200000D02*
X98800000Y-108200000D01*
X98800000Y-108200000D02*
X97457099Y-109542901D01*
X97457099Y-109542901D02*
X94342901Y-109542901D01*
X94342901Y-109542901D02*
X91800000Y-107000000D01*
X90450000Y-96775000D02*
X90450000Y-94700000D01*
X90450000Y-94700000D02*
X90500000Y-94650000D01*
X90450000Y-96775000D02*
X90450000Y-98175000D01*
X90450000Y-98175000D02*
X90475000Y-98200000D01*
X102200000Y-98200000D02*
X102200000Y-95800000D01*
X104125000Y-108200000D02*
X102700002Y-108200000D01*
X102200000Y-107699998D02*
X102200000Y-103100000D01*
X102200000Y-103100000D02*
X102200000Y-98765685D01*
X103375000Y-103100000D02*
X102494000Y-103100000D01*
X102494000Y-103100000D02*
X102200000Y-103100000D01*
X102200000Y-98765685D02*
X102200000Y-98200000D01*
X102700002Y-108200000D02*
X102200000Y-107699998D01*
X90750000Y-102237098D02*
X90750000Y-100470568D01*
X90750000Y-100470568D02*
X93020568Y-98200000D01*
X93084315Y-98200000D02*
X93650000Y-98200000D01*
X93020568Y-98200000D02*
X93084315Y-98200000D01*
X90750000Y-102237098D02*
X91200000Y-102687098D01*
X91200000Y-102687098D02*
X91200000Y-106400000D01*
X91200000Y-106400000D02*
X91800000Y-107000000D01*
X93650000Y-98200000D02*
X90475000Y-98200000D01*
X90475000Y-98200000D02*
X85700000Y-98200000D01*
X85700000Y-98200000D02*
X85600000Y-98300000D01*
D25*
X107653885Y-102253885D02*
X107253886Y-101853886D01*
X110900000Y-103430000D02*
X108830000Y-103430000D01*
X108830000Y-103430000D02*
X107653885Y-102253885D01*
D26*
X96562556Y-93717498D02*
X95889553Y-94390501D01*
X95889553Y-94390501D02*
X92090501Y-94390501D01*
X92090501Y-94390501D02*
X90899999Y-93199999D01*
X90899999Y-93199999D02*
X90500000Y-92800000D01*
X99867498Y-93717498D02*
X96562556Y-93717498D01*
X100750000Y-94600000D02*
X99867498Y-93717498D01*
X90500000Y-93750000D02*
X90500000Y-92800000D01*
X90500000Y-92800000D02*
X88900000Y-92800000D01*
X90550000Y-92850000D02*
X90500000Y-92800000D01*
D25*
X103450000Y-87200000D02*
X101977607Y-87200000D01*
X101977607Y-87200000D02*
X101477607Y-87700000D01*
D28*
X87400000Y-102998000D02*
X87400000Y-104318800D01*
X87400000Y-104318800D02*
X87400000Y-109602000D01*
X87400000Y-102998000D02*
X87400000Y-102490000D01*
X87400000Y-102490000D02*
X85600000Y-100690000D01*
X85600000Y-100690000D02*
X85600000Y-100200000D01*
D26*
X87400000Y-103400000D02*
X87400000Y-102500000D01*
D25*
X100400000Y-101350000D02*
X100400000Y-102150000D01*
X97987347Y-107687347D02*
X95643580Y-105343580D01*
X95643580Y-105343580D02*
X93643580Y-105343580D01*
X93643580Y-105343580D02*
X93353210Y-105053210D01*
X93353210Y-105053210D02*
X93353210Y-102446790D01*
X93353210Y-102446790D02*
X100000000Y-95800000D01*
X100000000Y-95800000D02*
X100100000Y-95800000D01*
X107264000Y-87200000D02*
X107460000Y-87396000D01*
X104550000Y-87200000D02*
X107264000Y-87200000D01*
X91540510Y-100850000D02*
X91590510Y-100800000D01*
X91590510Y-100800000D02*
X92050000Y-100800000D01*
X95000000Y-97850000D02*
X95000000Y-96412437D01*
X92050000Y-100800000D02*
X95000000Y-97850000D01*
X95000000Y-96412437D02*
X94234080Y-95646517D01*
X104200000Y-100484315D02*
X104200000Y-101050000D01*
X104200000Y-92911630D02*
X104200000Y-100484315D01*
X100999999Y-91100001D02*
X102388371Y-91100001D01*
X100600000Y-91500000D02*
X100999999Y-91100001D01*
X102388371Y-91100001D02*
X104200000Y-92911630D01*
X99500000Y-91700000D02*
X99500000Y-91134315D01*
X99937524Y-90696791D02*
X102555386Y-90696791D01*
X104700000Y-92841405D02*
X104700000Y-100100000D01*
X99500000Y-91134315D02*
X99937524Y-90696791D01*
X102555386Y-90696791D02*
X104700000Y-92841405D01*
X104700000Y-100100000D02*
X104920000Y-100320000D01*
X104920000Y-100320000D02*
X104920000Y-100350008D01*
X98792314Y-94541972D02*
X98807842Y-94526444D01*
X98807842Y-96342158D02*
X98807842Y-95092129D01*
X92950000Y-105229774D02*
X92950000Y-102200000D01*
X92950000Y-102200000D02*
X98807842Y-96342158D01*
X97281184Y-107781184D02*
X95246790Y-105746790D01*
X97281184Y-108422254D02*
X97281184Y-107781184D01*
X95246790Y-105746790D02*
X93467016Y-105746790D01*
X93467016Y-105746790D02*
X92950000Y-105229774D01*
X98807842Y-95092129D02*
X98807842Y-94526444D01*
X98792314Y-94696069D02*
X98792314Y-94541972D01*
X96250000Y-107391406D02*
X95008595Y-106150001D01*
X97808000Y-95073685D02*
X97808000Y-94508000D01*
X96250000Y-108800000D02*
X96250000Y-107391406D01*
X97808000Y-96767000D02*
X97808000Y-95073685D01*
X92503210Y-102071790D02*
X97808000Y-96767000D01*
X93300001Y-106150001D02*
X92503210Y-105353210D01*
X95008595Y-106150001D02*
X93300001Y-106150001D01*
X92503210Y-105353210D02*
X92503210Y-102071790D01*
X95741138Y-107982898D02*
X95741138Y-107452770D01*
X94988370Y-106700001D02*
X93220227Y-106700001D01*
X95341139Y-108382897D02*
X95741138Y-107982898D01*
X93220227Y-106700001D02*
X92099999Y-105579773D01*
X95741138Y-107452770D02*
X94988370Y-106700001D01*
X96812568Y-97187432D02*
X96812568Y-95169275D01*
X92099999Y-105579773D02*
X92099999Y-101900001D01*
X96812568Y-95169275D02*
X96812568Y-94603590D01*
X92099999Y-101900001D02*
X96812568Y-97187432D01*
X93450000Y-107500000D02*
X94184315Y-107500000D01*
X96065784Y-97354442D02*
X91696788Y-101723438D01*
X91696788Y-105746788D02*
X93450000Y-107500000D01*
X96065784Y-95558523D02*
X96065784Y-97354442D01*
X94184315Y-107500000D02*
X94750000Y-107500000D01*
X91696788Y-101723438D02*
X91696788Y-105746788D01*
X93522380Y-96358217D02*
X92500000Y-95335837D01*
X92500000Y-95335837D02*
X92500000Y-95299998D01*
D29*
G36*
X112645600Y-108853203D02*
X104853202Y-116645600D01*
X91176200Y-116645600D01*
X91176200Y-114325400D01*
X91220600Y-114325400D01*
X91220600Y-115525400D01*
X91312485Y-115936535D01*
X91554710Y-116281211D01*
X91910398Y-116506955D01*
X92106104Y-116561842D01*
X92274600Y-116509230D01*
X92274600Y-114325400D01*
X92325400Y-114325400D01*
X92325400Y-116509230D01*
X92493896Y-116561842D01*
X92689602Y-116506955D01*
X93045290Y-116281211D01*
X93287515Y-115936535D01*
X93379400Y-115525400D01*
X93379400Y-114464254D01*
X94920456Y-114464254D01*
X95046459Y-114769204D01*
X95279569Y-115002721D01*
X95584298Y-115129256D01*
X95914254Y-115129544D01*
X96219204Y-115003541D01*
X96452721Y-114770431D01*
X96579256Y-114465702D01*
X96579257Y-114464254D01*
X99420456Y-114464254D01*
X99546459Y-114769204D01*
X99779569Y-115002721D01*
X100084298Y-115129256D01*
X100414254Y-115129544D01*
X100719204Y-115003541D01*
X100952721Y-114770431D01*
X101079256Y-114465702D01*
X101079378Y-114325400D01*
X102620600Y-114325400D01*
X102620600Y-115525400D01*
X102712485Y-115936535D01*
X102954710Y-116281211D01*
X103310398Y-116506955D01*
X103506104Y-116561842D01*
X103674600Y-116509230D01*
X103674600Y-114325400D01*
X103725400Y-114325400D01*
X103725400Y-116509230D01*
X103893896Y-116561842D01*
X104089602Y-116506955D01*
X104445290Y-116281211D01*
X104687515Y-115936535D01*
X104779400Y-115525400D01*
X104779400Y-114325400D01*
X103725400Y-114325400D01*
X103674600Y-114325400D01*
X102620600Y-114325400D01*
X101079378Y-114325400D01*
X101079544Y-114135746D01*
X100953541Y-113830796D01*
X100720431Y-113597279D01*
X100415702Y-113470744D01*
X100085746Y-113470456D01*
X99780796Y-113596459D01*
X99547279Y-113829569D01*
X99420744Y-114134298D01*
X99420456Y-114464254D01*
X96579257Y-114464254D01*
X96579544Y-114135746D01*
X96453541Y-113830796D01*
X96220431Y-113597279D01*
X95915702Y-113470744D01*
X95585746Y-113470456D01*
X95280796Y-113596459D01*
X95047279Y-113829569D01*
X94920744Y-114134298D01*
X94920456Y-114464254D01*
X93379400Y-114464254D01*
X93379400Y-114325400D01*
X92325400Y-114325400D01*
X92274600Y-114325400D01*
X91220600Y-114325400D01*
X91176200Y-114325400D01*
X91176200Y-113074600D01*
X91220600Y-113074600D01*
X91220600Y-114274600D01*
X92274600Y-114274600D01*
X92274600Y-112090770D01*
X92325400Y-112090770D01*
X92325400Y-114274600D01*
X93379400Y-114274600D01*
X93379400Y-113074600D01*
X102620600Y-113074600D01*
X102620600Y-114274600D01*
X103674600Y-114274600D01*
X103674600Y-112090770D01*
X103725400Y-112090770D01*
X103725400Y-114274600D01*
X104779400Y-114274600D01*
X104779400Y-113074600D01*
X104687515Y-112663465D01*
X104445290Y-112318789D01*
X104089602Y-112093045D01*
X103893896Y-112038158D01*
X103725400Y-112090770D01*
X103674600Y-112090770D01*
X103506104Y-112038158D01*
X103310398Y-112093045D01*
X102954710Y-112318789D01*
X102712485Y-112663465D01*
X102620600Y-113074600D01*
X93379400Y-113074600D01*
X93287515Y-112663465D01*
X93045290Y-112318789D01*
X92689602Y-112093045D01*
X92493896Y-112038158D01*
X92325400Y-112090770D01*
X92274600Y-112090770D01*
X92106104Y-112038158D01*
X91910398Y-112093045D01*
X91554710Y-112318789D01*
X91312485Y-112663465D01*
X91220600Y-113074600D01*
X91176200Y-113074600D01*
X91176200Y-108340738D01*
X94417730Y-111582269D01*
X94570177Y-111684131D01*
X94750000Y-111719900D01*
X102759102Y-111719900D01*
X102864648Y-111825631D01*
X103114266Y-111929282D01*
X103384548Y-111929517D01*
X103634346Y-111826303D01*
X103825631Y-111635352D01*
X103929282Y-111385734D01*
X103929517Y-111115452D01*
X103826303Y-110865654D01*
X103635352Y-110674369D01*
X103385734Y-110570718D01*
X103115452Y-110570483D01*
X102865654Y-110673697D01*
X102759065Y-110780100D01*
X94944639Y-110780100D01*
X94098262Y-109933723D01*
X94163078Y-109977032D01*
X94342901Y-110012801D01*
X97457099Y-110012801D01*
X97636922Y-109977032D01*
X97789368Y-109875170D01*
X98994639Y-108669900D01*
X102209104Y-108669900D01*
X102314650Y-108775631D01*
X102564268Y-108879282D01*
X102834550Y-108879517D01*
X103084348Y-108776303D01*
X103190937Y-108669900D01*
X103340127Y-108669900D01*
X103340127Y-108825000D01*
X103361812Y-108934016D01*
X103423564Y-109026436D01*
X103515984Y-109088188D01*
X103625000Y-109109873D01*
X104625000Y-109109873D01*
X104734016Y-109088188D01*
X104826436Y-109026436D01*
X104888188Y-108934016D01*
X104909873Y-108825000D01*
X104909873Y-108295250D01*
X105345600Y-108295250D01*
X105345600Y-108880576D01*
X105388136Y-108983267D01*
X105466733Y-109061864D01*
X105569424Y-109104400D01*
X106029750Y-109104400D01*
X106099600Y-109034550D01*
X106099600Y-108225400D01*
X106150400Y-108225400D01*
X106150400Y-109034550D01*
X106220250Y-109104400D01*
X106680576Y-109104400D01*
X106783267Y-109061864D01*
X106861864Y-108983267D01*
X106904400Y-108880576D01*
X106904400Y-108295250D01*
X106834550Y-108225400D01*
X106150400Y-108225400D01*
X106099600Y-108225400D01*
X105415450Y-108225400D01*
X105345600Y-108295250D01*
X104909873Y-108295250D01*
X104909873Y-107575000D01*
X104898819Y-107519424D01*
X105345600Y-107519424D01*
X105345600Y-108104750D01*
X105415450Y-108174600D01*
X106099600Y-108174600D01*
X106099600Y-107365450D01*
X106150400Y-107365450D01*
X106150400Y-108174600D01*
X106834550Y-108174600D01*
X106904400Y-108104750D01*
X106904400Y-107519424D01*
X106861864Y-107416733D01*
X106783267Y-107338136D01*
X106680576Y-107295600D01*
X106220250Y-107295600D01*
X106150400Y-107365450D01*
X106099600Y-107365450D01*
X106029750Y-107295600D01*
X105569424Y-107295600D01*
X105466733Y-107338136D01*
X105388136Y-107416733D01*
X105345600Y-107519424D01*
X104898819Y-107519424D01*
X104888188Y-107465984D01*
X104826436Y-107373564D01*
X104734016Y-107311812D01*
X104625000Y-107290127D01*
X103625000Y-107290127D01*
X103515984Y-107311812D01*
X103423564Y-107373564D01*
X103361812Y-107465984D01*
X103340127Y-107575000D01*
X103340127Y-107730100D01*
X103190900Y-107730100D01*
X103085354Y-107624369D01*
X102835736Y-107520718D01*
X102685127Y-107520587D01*
X102669900Y-107505360D01*
X102669900Y-103920952D01*
X102673564Y-103926436D01*
X102765984Y-103988188D01*
X102875000Y-104009873D01*
X103875000Y-104009873D01*
X103984016Y-103988188D01*
X104076436Y-103926436D01*
X104138188Y-103834016D01*
X104159873Y-103725000D01*
X104159873Y-103195250D01*
X104595600Y-103195250D01*
X104595600Y-103780576D01*
X104638136Y-103883267D01*
X104716733Y-103961864D01*
X104819424Y-104004400D01*
X105279750Y-104004400D01*
X105349600Y-103934550D01*
X105349600Y-103125400D01*
X105400400Y-103125400D01*
X105400400Y-103934550D01*
X105470250Y-104004400D01*
X105930576Y-104004400D01*
X106033267Y-103961864D01*
X106111864Y-103883267D01*
X106154400Y-103780576D01*
X106154400Y-103195250D01*
X106084550Y-103125400D01*
X105400400Y-103125400D01*
X105349600Y-103125400D01*
X104665450Y-103125400D01*
X104595600Y-103195250D01*
X104159873Y-103195250D01*
X104159873Y-102475000D01*
X104148819Y-102419424D01*
X104595600Y-102419424D01*
X104595600Y-103004750D01*
X104665450Y-103074600D01*
X105349600Y-103074600D01*
X105349600Y-102265450D01*
X105400400Y-102265450D01*
X105400400Y-103074600D01*
X106084550Y-103074600D01*
X106154400Y-103004750D01*
X106154400Y-102419424D01*
X106111864Y-102316733D01*
X106033267Y-102238136D01*
X105930576Y-102195600D01*
X105470250Y-102195600D01*
X105400400Y-102265450D01*
X105349600Y-102265450D01*
X105279750Y-102195600D01*
X104819424Y-102195600D01*
X104716733Y-102238136D01*
X104638136Y-102316733D01*
X104595600Y-102419424D01*
X104148819Y-102419424D01*
X104138188Y-102365984D01*
X104076436Y-102273564D01*
X103984016Y-102211812D01*
X103875000Y-102190127D01*
X102875000Y-102190127D01*
X102765984Y-102211812D01*
X102673564Y-102273564D01*
X102669900Y-102279048D01*
X102669900Y-101988434D01*
X106574369Y-101988434D01*
X106677583Y-102238232D01*
X106868534Y-102429517D01*
X107118152Y-102533168D01*
X107388434Y-102533403D01*
X107392788Y-102531604D01*
X108560592Y-103699408D01*
X108684198Y-103781998D01*
X108830000Y-103811001D01*
X108830005Y-103811000D01*
X109655008Y-103811000D01*
X109666228Y-103867407D01*
X109913999Y-104238223D01*
X110284815Y-104485994D01*
X110722222Y-104573000D01*
X111077778Y-104573000D01*
X111515185Y-104485994D01*
X111886001Y-104238223D01*
X112133772Y-103867407D01*
X112220778Y-103430000D01*
X112133772Y-102992593D01*
X111886001Y-102621777D01*
X111515185Y-102374006D01*
X111077778Y-102287000D01*
X110722222Y-102287000D01*
X110284815Y-102374006D01*
X109913999Y-102621777D01*
X109666228Y-102992593D01*
X109655008Y-103049000D01*
X108987816Y-103049000D01*
X107931780Y-101992964D01*
X107933168Y-101989620D01*
X107933403Y-101719338D01*
X107830189Y-101469540D01*
X107639238Y-101278255D01*
X107389620Y-101174604D01*
X107119338Y-101174369D01*
X106869540Y-101277583D01*
X106678255Y-101468534D01*
X106574604Y-101718152D01*
X106574369Y-101988434D01*
X102669900Y-101988434D01*
X102669900Y-98690898D01*
X102775631Y-98585352D01*
X102879282Y-98335734D01*
X102879517Y-98065452D01*
X102776303Y-97815654D01*
X102669900Y-97709065D01*
X102669900Y-96290898D01*
X102775631Y-96185352D01*
X102879282Y-95935734D01*
X102879517Y-95665452D01*
X102776303Y-95415654D01*
X102585352Y-95224369D01*
X102335734Y-95120718D01*
X102065452Y-95120483D01*
X101815654Y-95223697D01*
X101624369Y-95414648D01*
X101520718Y-95664266D01*
X101520483Y-95934548D01*
X101623697Y-96184346D01*
X101730100Y-96290935D01*
X101730100Y-97709102D01*
X101624369Y-97814648D01*
X101520718Y-98064266D01*
X101520483Y-98334548D01*
X101623697Y-98584346D01*
X101730100Y-98690935D01*
X101730100Y-107699998D01*
X101736088Y-107730100D01*
X98800000Y-107730100D01*
X98666687Y-107756618D01*
X98666864Y-107552799D01*
X98563650Y-107303001D01*
X98372699Y-107111716D01*
X98123081Y-107008065D01*
X97852799Y-107007830D01*
X97848445Y-107009629D01*
X95912988Y-105074172D01*
X95789383Y-104991582D01*
X95643580Y-104962580D01*
X93801396Y-104962580D01*
X93734210Y-104895394D01*
X93734210Y-104145250D01*
X99470600Y-104145250D01*
X99470600Y-104455576D01*
X99513136Y-104558267D01*
X99591733Y-104636864D01*
X99694424Y-104679400D01*
X100304750Y-104679400D01*
X100374600Y-104609550D01*
X100374600Y-104075400D01*
X100425400Y-104075400D01*
X100425400Y-104609550D01*
X100495250Y-104679400D01*
X101105576Y-104679400D01*
X101208267Y-104636864D01*
X101286864Y-104558267D01*
X101329400Y-104455576D01*
X101329400Y-104145250D01*
X101259550Y-104075400D01*
X100425400Y-104075400D01*
X100374600Y-104075400D01*
X99540450Y-104075400D01*
X99470600Y-104145250D01*
X93734210Y-104145250D01*
X93734210Y-103644424D01*
X99470600Y-103644424D01*
X99470600Y-103954750D01*
X99540450Y-104024600D01*
X100374600Y-104024600D01*
X100374600Y-103490450D01*
X100425400Y-103490450D01*
X100425400Y-104024600D01*
X101259550Y-104024600D01*
X101329400Y-103954750D01*
X101329400Y-103644424D01*
X101286864Y-103541733D01*
X101208267Y-103463136D01*
X101105576Y-103420600D01*
X100495250Y-103420600D01*
X100425400Y-103490450D01*
X100374600Y-103490450D01*
X100304750Y-103420600D01*
X99694424Y-103420600D01*
X99591733Y-103463136D01*
X99513136Y-103541733D01*
X99470600Y-103644424D01*
X93734210Y-103644424D01*
X93734210Y-102604606D01*
X94538815Y-101800000D01*
X99465127Y-101800000D01*
X99465127Y-102500000D01*
X99486812Y-102609016D01*
X99548564Y-102701436D01*
X99640984Y-102763188D01*
X99750000Y-102784873D01*
X101050000Y-102784873D01*
X101159016Y-102763188D01*
X101251436Y-102701436D01*
X101313188Y-102609016D01*
X101334873Y-102500000D01*
X101334873Y-101800000D01*
X101313188Y-101690984D01*
X101251436Y-101598564D01*
X101159016Y-101536812D01*
X101065774Y-101518265D01*
X101079282Y-101485734D01*
X101079517Y-101215452D01*
X100976303Y-100965654D01*
X100785352Y-100774369D01*
X100535734Y-100670718D01*
X100265452Y-100670483D01*
X100015654Y-100773697D01*
X99824369Y-100964648D01*
X99720718Y-101214266D01*
X99720483Y-101484548D01*
X99734400Y-101518230D01*
X99640984Y-101536812D01*
X99548564Y-101598564D01*
X99486812Y-101690984D01*
X99465127Y-101800000D01*
X94538815Y-101800000D01*
X99890262Y-96448553D01*
X99964266Y-96479282D01*
X100234548Y-96479517D01*
X100484346Y-96376303D01*
X100675631Y-96185352D01*
X100779282Y-95935734D01*
X100779517Y-95665452D01*
X100676303Y-95415654D01*
X100487710Y-95226731D01*
X100614266Y-95279282D01*
X100884548Y-95279517D01*
X101134346Y-95176303D01*
X101325631Y-94985352D01*
X101429282Y-94735734D01*
X101429517Y-94465452D01*
X101326303Y-94215654D01*
X101135352Y-94024369D01*
X100885734Y-93920718D01*
X100735126Y-93920587D01*
X100199767Y-93385229D01*
X100047321Y-93283367D01*
X99867498Y-93247598D01*
X96562556Y-93247598D01*
X96382733Y-93283367D01*
X96230287Y-93385229D01*
X95694915Y-93920601D01*
X92285140Y-93920601D01*
X91232268Y-92867730D01*
X91179387Y-92814849D01*
X91179517Y-92665452D01*
X91076303Y-92415654D01*
X90885352Y-92224369D01*
X90635734Y-92120718D01*
X90365452Y-92120483D01*
X90115654Y-92223697D01*
X90009065Y-92330100D01*
X89559873Y-92330100D01*
X89559873Y-92325000D01*
X89538188Y-92215984D01*
X89476436Y-92123564D01*
X89384016Y-92061812D01*
X89275000Y-92040127D01*
X88025000Y-92040127D01*
X87915984Y-92061812D01*
X87823564Y-92123564D01*
X87761812Y-92215984D01*
X87740127Y-92325000D01*
X87740127Y-93325000D01*
X87761812Y-93434016D01*
X87823564Y-93526436D01*
X87915984Y-93588188D01*
X88025000Y-93609873D01*
X89275000Y-93609873D01*
X89384016Y-93588188D01*
X89476436Y-93526436D01*
X89538188Y-93434016D01*
X89559873Y-93325000D01*
X89559873Y-93269900D01*
X90009102Y-93269900D01*
X90030100Y-93290935D01*
X90030100Y-93327493D01*
X89998564Y-93348564D01*
X89936812Y-93440984D01*
X89915127Y-93550000D01*
X89915127Y-93950000D01*
X89936812Y-94059016D01*
X89998564Y-94151436D01*
X90071246Y-94200000D01*
X89998564Y-94248564D01*
X89936812Y-94340984D01*
X89915127Y-94450000D01*
X89915127Y-94850000D01*
X89936812Y-94959016D01*
X89980100Y-95023802D01*
X89980100Y-95865127D01*
X89950000Y-95865127D01*
X89840984Y-95886812D01*
X89748564Y-95948564D01*
X89686812Y-96040984D01*
X89665127Y-96150000D01*
X89665127Y-97400000D01*
X89686812Y-97509016D01*
X89748564Y-97601436D01*
X89840984Y-97663188D01*
X89950000Y-97684873D01*
X89980100Y-97684873D01*
X89980100Y-97730100D01*
X86423802Y-97730100D01*
X86359016Y-97686812D01*
X86250000Y-97665127D01*
X84950000Y-97665127D01*
X84840984Y-97686812D01*
X84748564Y-97748564D01*
X84686812Y-97840984D01*
X84665127Y-97950000D01*
X84665127Y-98650000D01*
X84686812Y-98759016D01*
X84748564Y-98851436D01*
X84840984Y-98913188D01*
X84950000Y-98934873D01*
X86250000Y-98934873D01*
X86359016Y-98913188D01*
X86451436Y-98851436D01*
X86513188Y-98759016D01*
X86530915Y-98669900D01*
X86909969Y-98669900D01*
X86863136Y-98716733D01*
X86820600Y-98819424D01*
X86820600Y-99404750D01*
X86890450Y-99474600D01*
X87574600Y-99474600D01*
X87574600Y-99454600D01*
X87625400Y-99454600D01*
X87625400Y-99474600D01*
X88309550Y-99474600D01*
X88379400Y-99404750D01*
X88379400Y-98819424D01*
X88336864Y-98716733D01*
X88290031Y-98669900D01*
X88904048Y-98669900D01*
X88898564Y-98673564D01*
X88836812Y-98765984D01*
X88815127Y-98875000D01*
X88815127Y-100125000D01*
X88836812Y-100234016D01*
X88898564Y-100326436D01*
X88990984Y-100388188D01*
X89100000Y-100409873D01*
X89168200Y-100409873D01*
X89168200Y-100602036D01*
X89098564Y-100648564D01*
X89049438Y-100722088D01*
X89036864Y-100691733D01*
X88958267Y-100613136D01*
X88855576Y-100570600D01*
X88595250Y-100570600D01*
X88525400Y-100640450D01*
X88525400Y-101074600D01*
X88545400Y-101074600D01*
X88545400Y-101125400D01*
X88525400Y-101125400D01*
X88525400Y-101559550D01*
X88595250Y-101629400D01*
X88855576Y-101629400D01*
X88958267Y-101586864D01*
X89036864Y-101508267D01*
X89049438Y-101477912D01*
X89098564Y-101551436D01*
X89190984Y-101613188D01*
X89254200Y-101625763D01*
X89254200Y-101697127D01*
X89178000Y-101697127D01*
X89068984Y-101718812D01*
X88976564Y-101780564D01*
X88914812Y-101872984D01*
X88893127Y-101982000D01*
X88893127Y-104014000D01*
X88914812Y-104123016D01*
X88976564Y-104215436D01*
X89068984Y-104277188D01*
X89178000Y-104298873D01*
X89216100Y-104298873D01*
X89216100Y-104323800D01*
X87831800Y-104323800D01*
X87831800Y-104298873D01*
X87908000Y-104298873D01*
X88017016Y-104277188D01*
X88109436Y-104215436D01*
X88171188Y-104123016D01*
X88192873Y-104014000D01*
X88192873Y-101982000D01*
X88171188Y-101872984D01*
X88109436Y-101780564D01*
X88017016Y-101718812D01*
X87908000Y-101697127D01*
X87217784Y-101697127D01*
X86715908Y-101195250D01*
X87920600Y-101195250D01*
X87920600Y-101405576D01*
X87963136Y-101508267D01*
X88041733Y-101586864D01*
X88144424Y-101629400D01*
X88404750Y-101629400D01*
X88474600Y-101559550D01*
X88474600Y-101125400D01*
X87990450Y-101125400D01*
X87920600Y-101195250D01*
X86715908Y-101195250D01*
X86338022Y-100817364D01*
X86359016Y-100813188D01*
X86387098Y-100794424D01*
X87920600Y-100794424D01*
X87920600Y-101004750D01*
X87990450Y-101074600D01*
X88474600Y-101074600D01*
X88474600Y-100640450D01*
X88404750Y-100570600D01*
X88144424Y-100570600D01*
X88041733Y-100613136D01*
X87963136Y-100691733D01*
X87920600Y-100794424D01*
X86387098Y-100794424D01*
X86451436Y-100751436D01*
X86513188Y-100659016D01*
X86534873Y-100550000D01*
X86534873Y-99850000D01*
X86513188Y-99740984D01*
X86451436Y-99648564D01*
X86371645Y-99595250D01*
X86820600Y-99595250D01*
X86820600Y-100180576D01*
X86863136Y-100283267D01*
X86941733Y-100361864D01*
X87044424Y-100404400D01*
X87504750Y-100404400D01*
X87574600Y-100334550D01*
X87574600Y-99525400D01*
X87625400Y-99525400D01*
X87625400Y-100334550D01*
X87695250Y-100404400D01*
X88155576Y-100404400D01*
X88258267Y-100361864D01*
X88336864Y-100283267D01*
X88379400Y-100180576D01*
X88379400Y-99595250D01*
X88309550Y-99525400D01*
X87625400Y-99525400D01*
X87574600Y-99525400D01*
X86890450Y-99525400D01*
X86820600Y-99595250D01*
X86371645Y-99595250D01*
X86359016Y-99586812D01*
X86250000Y-99565127D01*
X84950000Y-99565127D01*
X84840984Y-99586812D01*
X84748564Y-99648564D01*
X84686812Y-99740984D01*
X84665127Y-99850000D01*
X84665127Y-100550000D01*
X84686812Y-100659016D01*
X84748564Y-100751436D01*
X84840984Y-100813188D01*
X84950000Y-100834873D01*
X85197017Y-100834873D01*
X85201069Y-100855243D01*
X85261579Y-100945803D01*
X85294671Y-100995329D01*
X86607127Y-102307784D01*
X86607127Y-104014000D01*
X86628812Y-104123016D01*
X86690564Y-104215436D01*
X86782984Y-104277188D01*
X86892000Y-104298873D01*
X86968200Y-104298873D01*
X86968200Y-104323800D01*
X83354400Y-104323800D01*
X83354400Y-103093250D01*
X84326600Y-103093250D01*
X84326600Y-104069576D01*
X84369136Y-104172267D01*
X84447733Y-104250864D01*
X84550424Y-104293400D01*
X85018750Y-104293400D01*
X85088600Y-104223550D01*
X85088600Y-103023400D01*
X85139400Y-103023400D01*
X85139400Y-104223550D01*
X85209250Y-104293400D01*
X85677576Y-104293400D01*
X85780267Y-104250864D01*
X85858864Y-104172267D01*
X85901400Y-104069576D01*
X85901400Y-103093250D01*
X85831550Y-103023400D01*
X85139400Y-103023400D01*
X85088600Y-103023400D01*
X84396450Y-103023400D01*
X84326600Y-103093250D01*
X83354400Y-103093250D01*
X83354400Y-101926424D01*
X84326600Y-101926424D01*
X84326600Y-102902750D01*
X84396450Y-102972600D01*
X85088600Y-102972600D01*
X85088600Y-101772450D01*
X85139400Y-101772450D01*
X85139400Y-102972600D01*
X85831550Y-102972600D01*
X85901400Y-102902750D01*
X85901400Y-101926424D01*
X85858864Y-101823733D01*
X85780267Y-101745136D01*
X85677576Y-101702600D01*
X85209250Y-101702600D01*
X85139400Y-101772450D01*
X85088600Y-101772450D01*
X85018750Y-101702600D01*
X84550424Y-101702600D01*
X84447733Y-101745136D01*
X84369136Y-101823733D01*
X84326600Y-101926424D01*
X83354400Y-101926424D01*
X83354400Y-96870250D01*
X87670600Y-96870250D01*
X87670600Y-97455576D01*
X87713136Y-97558267D01*
X87791733Y-97636864D01*
X87894424Y-97679400D01*
X88354750Y-97679400D01*
X88424600Y-97609550D01*
X88424600Y-96800400D01*
X88475400Y-96800400D01*
X88475400Y-97609550D01*
X88545250Y-97679400D01*
X89005576Y-97679400D01*
X89108267Y-97636864D01*
X89186864Y-97558267D01*
X89229400Y-97455576D01*
X89229400Y-96870250D01*
X89159550Y-96800400D01*
X88475400Y-96800400D01*
X88424600Y-96800400D01*
X87740450Y-96800400D01*
X87670600Y-96870250D01*
X83354400Y-96870250D01*
X83354400Y-96094424D01*
X87670600Y-96094424D01*
X87670600Y-96679750D01*
X87740450Y-96749600D01*
X88424600Y-96749600D01*
X88424600Y-95940450D01*
X88475400Y-95940450D01*
X88475400Y-96749600D01*
X89159550Y-96749600D01*
X89229400Y-96679750D01*
X89229400Y-96094424D01*
X89186864Y-95991733D01*
X89108267Y-95913136D01*
X89005576Y-95870600D01*
X88545250Y-95870600D01*
X88475400Y-95940450D01*
X88424600Y-95940450D01*
X88354750Y-95870600D01*
X87894424Y-95870600D01*
X87791733Y-95913136D01*
X87713136Y-95991733D01*
X87670600Y-96094424D01*
X83354400Y-96094424D01*
X83354400Y-94920250D01*
X87745600Y-94920250D01*
X87745600Y-95380576D01*
X87788136Y-95483267D01*
X87866733Y-95561864D01*
X87969424Y-95604400D01*
X88554750Y-95604400D01*
X88624600Y-95534550D01*
X88624600Y-94850400D01*
X88675400Y-94850400D01*
X88675400Y-95534550D01*
X88745250Y-95604400D01*
X89330576Y-95604400D01*
X89433267Y-95561864D01*
X89511864Y-95483267D01*
X89554400Y-95380576D01*
X89554400Y-94920250D01*
X89484550Y-94850400D01*
X88675400Y-94850400D01*
X88624600Y-94850400D01*
X87815450Y-94850400D01*
X87745600Y-94920250D01*
X83354400Y-94920250D01*
X83354400Y-94269424D01*
X87745600Y-94269424D01*
X87745600Y-94729750D01*
X87815450Y-94799600D01*
X88624600Y-94799600D01*
X88624600Y-94115450D01*
X88675400Y-94115450D01*
X88675400Y-94799600D01*
X89484550Y-94799600D01*
X89554400Y-94729750D01*
X89554400Y-94269424D01*
X89511864Y-94166733D01*
X89433267Y-94088136D01*
X89330576Y-94045600D01*
X88745250Y-94045600D01*
X88675400Y-94115450D01*
X88624600Y-94115450D01*
X88554750Y-94045600D01*
X87969424Y-94045600D01*
X87866733Y-94088136D01*
X87788136Y-94166733D01*
X87745600Y-94269424D01*
X83354400Y-94269424D01*
X83354400Y-91834548D01*
X98820483Y-91834548D01*
X98923697Y-92084346D01*
X99114648Y-92275631D01*
X99364266Y-92379282D01*
X99634548Y-92379517D01*
X99884346Y-92276303D01*
X100075631Y-92085352D01*
X100119320Y-91980137D01*
X100214648Y-92075631D01*
X100464266Y-92179282D01*
X100734548Y-92179517D01*
X100984346Y-92076303D01*
X101175631Y-91885352D01*
X101279282Y-91635734D01*
X101279417Y-91481001D01*
X102230555Y-91481001D01*
X103819000Y-93069445D01*
X103819000Y-100472314D01*
X103815654Y-100473697D01*
X103624369Y-100664648D01*
X103520718Y-100914266D01*
X103520483Y-101184548D01*
X103623697Y-101434346D01*
X103814648Y-101625631D01*
X104064266Y-101729282D01*
X104334548Y-101729517D01*
X104584346Y-101626303D01*
X104775631Y-101435352D01*
X104879282Y-101185734D01*
X104879418Y-101029373D01*
X105054548Y-101029525D01*
X105304346Y-100926311D01*
X105340720Y-100890000D01*
X109579222Y-100890000D01*
X109666228Y-101327407D01*
X109913999Y-101698223D01*
X110284815Y-101945994D01*
X110722222Y-102033000D01*
X111077778Y-102033000D01*
X111515185Y-101945994D01*
X111886001Y-101698223D01*
X112133772Y-101327407D01*
X112220778Y-100890000D01*
X112133772Y-100452593D01*
X111886001Y-100081777D01*
X111515185Y-99834006D01*
X111077778Y-99747000D01*
X110722222Y-99747000D01*
X110284815Y-99834006D01*
X109913999Y-100081777D01*
X109666228Y-100452593D01*
X109579222Y-100890000D01*
X105340720Y-100890000D01*
X105495631Y-100735360D01*
X105599282Y-100485742D01*
X105599517Y-100215460D01*
X105496303Y-99965662D01*
X105305352Y-99774377D01*
X105081000Y-99681217D01*
X105081000Y-98553848D01*
X109622924Y-98553848D01*
X109681885Y-98763940D01*
X109921416Y-99140262D01*
X110286726Y-99396274D01*
X110722200Y-99493000D01*
X110874600Y-99493000D01*
X110874600Y-98375400D01*
X110925400Y-98375400D01*
X110925400Y-99493000D01*
X111077800Y-99493000D01*
X111513274Y-99396274D01*
X111878584Y-99140262D01*
X112118115Y-98763940D01*
X112177076Y-98553848D01*
X112125249Y-98375400D01*
X110925400Y-98375400D01*
X110874600Y-98375400D01*
X109674751Y-98375400D01*
X109622924Y-98553848D01*
X105081000Y-98553848D01*
X105081000Y-98146152D01*
X109622924Y-98146152D01*
X109674751Y-98324600D01*
X110874600Y-98324600D01*
X110874600Y-97207000D01*
X110925400Y-97207000D01*
X110925400Y-98324600D01*
X112125249Y-98324600D01*
X112177076Y-98146152D01*
X112118115Y-97936060D01*
X111878584Y-97559738D01*
X111513274Y-97303726D01*
X111077800Y-97207000D01*
X110925400Y-97207000D01*
X110874600Y-97207000D01*
X110722200Y-97207000D01*
X110286726Y-97303726D01*
X109921416Y-97559738D01*
X109681885Y-97936060D01*
X109622924Y-98146152D01*
X105081000Y-98146152D01*
X105081000Y-95810000D01*
X109579222Y-95810000D01*
X109666228Y-96247407D01*
X109913999Y-96618223D01*
X110284815Y-96865994D01*
X110722222Y-96953000D01*
X111077778Y-96953000D01*
X111515185Y-96865994D01*
X111886001Y-96618223D01*
X112133772Y-96247407D01*
X112220778Y-95810000D01*
X112133772Y-95372593D01*
X111886001Y-95001777D01*
X111515185Y-94754006D01*
X111077778Y-94667000D01*
X110722222Y-94667000D01*
X110284815Y-94754006D01*
X109913999Y-95001777D01*
X109666228Y-95372593D01*
X109579222Y-95810000D01*
X105081000Y-95810000D01*
X105081000Y-92841405D01*
X105051998Y-92695603D01*
X105051998Y-92695602D01*
X104969408Y-92571997D01*
X104803811Y-92406400D01*
X109599127Y-92406400D01*
X109599127Y-94133600D01*
X109620812Y-94242616D01*
X109682564Y-94335036D01*
X109774984Y-94396788D01*
X109884000Y-94418473D01*
X111916000Y-94418473D01*
X112025016Y-94396788D01*
X112117436Y-94335036D01*
X112179188Y-94242616D01*
X112200873Y-94133600D01*
X112200873Y-92406400D01*
X112179188Y-92297384D01*
X112117436Y-92204964D01*
X112025016Y-92143212D01*
X111916000Y-92121527D01*
X109884000Y-92121527D01*
X109774984Y-92143212D01*
X109682564Y-92204964D01*
X109620812Y-92297384D01*
X109599127Y-92406400D01*
X104803811Y-92406400D01*
X102824794Y-90427383D01*
X102701189Y-90344793D01*
X102555386Y-90315791D01*
X99937524Y-90315791D01*
X99791722Y-90344793D01*
X99668116Y-90427383D01*
X99668114Y-90427386D01*
X99230592Y-90864907D01*
X99148002Y-90988512D01*
X99122912Y-91114648D01*
X99121601Y-91121240D01*
X99115654Y-91123697D01*
X98924369Y-91314648D01*
X98820718Y-91564266D01*
X98820483Y-91834548D01*
X83354400Y-91834548D01*
X83354400Y-87834548D01*
X100798090Y-87834548D01*
X100901304Y-88084346D01*
X101092255Y-88275631D01*
X101341873Y-88379282D01*
X101612155Y-88379517D01*
X101861953Y-88276303D01*
X102053238Y-88085352D01*
X102156889Y-87835734D01*
X102157110Y-87581000D01*
X102901501Y-87581000D01*
X102948564Y-87651436D01*
X103040984Y-87713188D01*
X103150000Y-87734873D01*
X103750000Y-87734873D01*
X103859016Y-87713188D01*
X103951436Y-87651436D01*
X104000000Y-87578754D01*
X104048564Y-87651436D01*
X104140984Y-87713188D01*
X104250000Y-87734873D01*
X104850000Y-87734873D01*
X104959016Y-87713188D01*
X105051436Y-87651436D01*
X105098499Y-87581000D01*
X106801329Y-87581000D01*
X106883697Y-87780346D01*
X107074648Y-87971631D01*
X107324266Y-88075282D01*
X107594548Y-88075517D01*
X107844346Y-87972303D01*
X108035631Y-87781352D01*
X108139282Y-87531734D01*
X108139517Y-87261452D01*
X108036303Y-87011654D01*
X107845352Y-86820369D01*
X107595734Y-86716718D01*
X107325452Y-86716483D01*
X107077341Y-86819000D01*
X105098499Y-86819000D01*
X105051436Y-86748564D01*
X104959016Y-86686812D01*
X104850000Y-86665127D01*
X104250000Y-86665127D01*
X104140984Y-86686812D01*
X104048564Y-86748564D01*
X104000000Y-86821246D01*
X103951436Y-86748564D01*
X103859016Y-86686812D01*
X103750000Y-86665127D01*
X103150000Y-86665127D01*
X103040984Y-86686812D01*
X102948564Y-86748564D01*
X102901501Y-86819000D01*
X101977612Y-86819000D01*
X101977607Y-86818999D01*
X101831805Y-86848002D01*
X101708199Y-86930592D01*
X101616685Y-87022106D01*
X101613341Y-87020718D01*
X101343059Y-87020483D01*
X101093261Y-87123697D01*
X100901976Y-87314648D01*
X100798325Y-87564266D01*
X100798090Y-87834548D01*
X83354400Y-87834548D01*
X83354400Y-79993078D01*
X87270352Y-79993078D01*
X87487507Y-80518632D01*
X87889253Y-80921080D01*
X88414427Y-81139152D01*
X88983078Y-81139648D01*
X89508632Y-80922493D01*
X89911080Y-80520747D01*
X90129152Y-79995573D01*
X90129648Y-79426922D01*
X89912493Y-78901368D01*
X89510747Y-78498920D01*
X88985573Y-78280848D01*
X88416922Y-78280352D01*
X87891368Y-78497507D01*
X87488920Y-78899253D01*
X87270848Y-79424427D01*
X87270352Y-79993078D01*
X83354400Y-79993078D01*
X83354400Y-75076200D01*
X112645600Y-75076200D01*
X112645600Y-108853203D01*
X112645600Y-108853203D01*
G37*
X112645600Y-108853203D02*
X104853202Y-116645600D01*
X91176200Y-116645600D01*
X91176200Y-114325400D01*
X91220600Y-114325400D01*
X91220600Y-115525400D01*
X91312485Y-115936535D01*
X91554710Y-116281211D01*
X91910398Y-116506955D01*
X92106104Y-116561842D01*
X92274600Y-116509230D01*
X92274600Y-114325400D01*
X92325400Y-114325400D01*
X92325400Y-116509230D01*
X92493896Y-116561842D01*
X92689602Y-116506955D01*
X93045290Y-116281211D01*
X93287515Y-115936535D01*
X93379400Y-115525400D01*
X93379400Y-114464254D01*
X94920456Y-114464254D01*
X95046459Y-114769204D01*
X95279569Y-115002721D01*
X95584298Y-115129256D01*
X95914254Y-115129544D01*
X96219204Y-115003541D01*
X96452721Y-114770431D01*
X96579256Y-114465702D01*
X96579257Y-114464254D01*
X99420456Y-114464254D01*
X99546459Y-114769204D01*
X99779569Y-115002721D01*
X100084298Y-115129256D01*
X100414254Y-115129544D01*
X100719204Y-115003541D01*
X100952721Y-114770431D01*
X101079256Y-114465702D01*
X101079378Y-114325400D01*
X102620600Y-114325400D01*
X102620600Y-115525400D01*
X102712485Y-115936535D01*
X102954710Y-116281211D01*
X103310398Y-116506955D01*
X103506104Y-116561842D01*
X103674600Y-116509230D01*
X103674600Y-114325400D01*
X103725400Y-114325400D01*
X103725400Y-116509230D01*
X103893896Y-116561842D01*
X104089602Y-116506955D01*
X104445290Y-116281211D01*
X104687515Y-115936535D01*
X104779400Y-115525400D01*
X104779400Y-114325400D01*
X103725400Y-114325400D01*
X103674600Y-114325400D01*
X102620600Y-114325400D01*
X101079378Y-114325400D01*
X101079544Y-114135746D01*
X100953541Y-113830796D01*
X100720431Y-113597279D01*
X100415702Y-113470744D01*
X100085746Y-113470456D01*
X99780796Y-113596459D01*
X99547279Y-113829569D01*
X99420744Y-114134298D01*
X99420456Y-114464254D01*
X96579257Y-114464254D01*
X96579544Y-114135746D01*
X96453541Y-113830796D01*
X96220431Y-113597279D01*
X95915702Y-113470744D01*
X95585746Y-113470456D01*
X95280796Y-113596459D01*
X95047279Y-113829569D01*
X94920744Y-114134298D01*
X94920456Y-114464254D01*
X93379400Y-114464254D01*
X93379400Y-114325400D01*
X92325400Y-114325400D01*
X92274600Y-114325400D01*
X91220600Y-114325400D01*
X91176200Y-114325400D01*
X91176200Y-113074600D01*
X91220600Y-113074600D01*
X91220600Y-114274600D01*
X92274600Y-114274600D01*
X92274600Y-112090770D01*
X92325400Y-112090770D01*
X92325400Y-114274600D01*
X93379400Y-114274600D01*
X93379400Y-113074600D01*
X102620600Y-113074600D01*
X102620600Y-114274600D01*
X103674600Y-114274600D01*
X103674600Y-112090770D01*
X103725400Y-112090770D01*
X103725400Y-114274600D01*
X104779400Y-114274600D01*
X104779400Y-113074600D01*
X104687515Y-112663465D01*
X104445290Y-112318789D01*
X104089602Y-112093045D01*
X103893896Y-112038158D01*
X103725400Y-112090770D01*
X103674600Y-112090770D01*
X103506104Y-112038158D01*
X103310398Y-112093045D01*
X102954710Y-112318789D01*
X102712485Y-112663465D01*
X102620600Y-113074600D01*
X93379400Y-113074600D01*
X93287515Y-112663465D01*
X93045290Y-112318789D01*
X92689602Y-112093045D01*
X92493896Y-112038158D01*
X92325400Y-112090770D01*
X92274600Y-112090770D01*
X92106104Y-112038158D01*
X91910398Y-112093045D01*
X91554710Y-112318789D01*
X91312485Y-112663465D01*
X91220600Y-113074600D01*
X91176200Y-113074600D01*
X91176200Y-108340738D01*
X94417730Y-111582269D01*
X94570177Y-111684131D01*
X94750000Y-111719900D01*
X102759102Y-111719900D01*
X102864648Y-111825631D01*
X103114266Y-111929282D01*
X103384548Y-111929517D01*
X103634346Y-111826303D01*
X103825631Y-111635352D01*
X103929282Y-111385734D01*
X103929517Y-111115452D01*
X103826303Y-110865654D01*
X103635352Y-110674369D01*
X103385734Y-110570718D01*
X103115452Y-110570483D01*
X102865654Y-110673697D01*
X102759065Y-110780100D01*
X94944639Y-110780100D01*
X94098262Y-109933723D01*
X94163078Y-109977032D01*
X94342901Y-110012801D01*
X97457099Y-110012801D01*
X97636922Y-109977032D01*
X97789368Y-109875170D01*
X98994639Y-108669900D01*
X102209104Y-108669900D01*
X102314650Y-108775631D01*
X102564268Y-108879282D01*
X102834550Y-108879517D01*
X103084348Y-108776303D01*
X103190937Y-108669900D01*
X103340127Y-108669900D01*
X103340127Y-108825000D01*
X103361812Y-108934016D01*
X103423564Y-109026436D01*
X103515984Y-109088188D01*
X103625000Y-109109873D01*
X104625000Y-109109873D01*
X104734016Y-109088188D01*
X104826436Y-109026436D01*
X104888188Y-108934016D01*
X104909873Y-108825000D01*
X104909873Y-108295250D01*
X105345600Y-108295250D01*
X105345600Y-108880576D01*
X105388136Y-108983267D01*
X105466733Y-109061864D01*
X105569424Y-109104400D01*
X106029750Y-109104400D01*
X106099600Y-109034550D01*
X106099600Y-108225400D01*
X106150400Y-108225400D01*
X106150400Y-109034550D01*
X106220250Y-109104400D01*
X106680576Y-109104400D01*
X106783267Y-109061864D01*
X106861864Y-108983267D01*
X106904400Y-108880576D01*
X106904400Y-108295250D01*
X106834550Y-108225400D01*
X106150400Y-108225400D01*
X106099600Y-108225400D01*
X105415450Y-108225400D01*
X105345600Y-108295250D01*
X104909873Y-108295250D01*
X104909873Y-107575000D01*
X104898819Y-107519424D01*
X105345600Y-107519424D01*
X105345600Y-108104750D01*
X105415450Y-108174600D01*
X106099600Y-108174600D01*
X106099600Y-107365450D01*
X106150400Y-107365450D01*
X106150400Y-108174600D01*
X106834550Y-108174600D01*
X106904400Y-108104750D01*
X106904400Y-107519424D01*
X106861864Y-107416733D01*
X106783267Y-107338136D01*
X106680576Y-107295600D01*
X106220250Y-107295600D01*
X106150400Y-107365450D01*
X106099600Y-107365450D01*
X106029750Y-107295600D01*
X105569424Y-107295600D01*
X105466733Y-107338136D01*
X105388136Y-107416733D01*
X105345600Y-107519424D01*
X104898819Y-107519424D01*
X104888188Y-107465984D01*
X104826436Y-107373564D01*
X104734016Y-107311812D01*
X104625000Y-107290127D01*
X103625000Y-107290127D01*
X103515984Y-107311812D01*
X103423564Y-107373564D01*
X103361812Y-107465984D01*
X103340127Y-107575000D01*
X103340127Y-107730100D01*
X103190900Y-107730100D01*
X103085354Y-107624369D01*
X102835736Y-107520718D01*
X102685127Y-107520587D01*
X102669900Y-107505360D01*
X102669900Y-103920952D01*
X102673564Y-103926436D01*
X102765984Y-103988188D01*
X102875000Y-104009873D01*
X103875000Y-104009873D01*
X103984016Y-103988188D01*
X104076436Y-103926436D01*
X104138188Y-103834016D01*
X104159873Y-103725000D01*
X104159873Y-103195250D01*
X104595600Y-103195250D01*
X104595600Y-103780576D01*
X104638136Y-103883267D01*
X104716733Y-103961864D01*
X104819424Y-104004400D01*
X105279750Y-104004400D01*
X105349600Y-103934550D01*
X105349600Y-103125400D01*
X105400400Y-103125400D01*
X105400400Y-103934550D01*
X105470250Y-104004400D01*
X105930576Y-104004400D01*
X106033267Y-103961864D01*
X106111864Y-103883267D01*
X106154400Y-103780576D01*
X106154400Y-103195250D01*
X106084550Y-103125400D01*
X105400400Y-103125400D01*
X105349600Y-103125400D01*
X104665450Y-103125400D01*
X104595600Y-103195250D01*
X104159873Y-103195250D01*
X104159873Y-102475000D01*
X104148819Y-102419424D01*
X104595600Y-102419424D01*
X104595600Y-103004750D01*
X104665450Y-103074600D01*
X105349600Y-103074600D01*
X105349600Y-102265450D01*
X105400400Y-102265450D01*
X105400400Y-103074600D01*
X106084550Y-103074600D01*
X106154400Y-103004750D01*
X106154400Y-102419424D01*
X106111864Y-102316733D01*
X106033267Y-102238136D01*
X105930576Y-102195600D01*
X105470250Y-102195600D01*
X105400400Y-102265450D01*
X105349600Y-102265450D01*
X105279750Y-102195600D01*
X104819424Y-102195600D01*
X104716733Y-102238136D01*
X104638136Y-102316733D01*
X104595600Y-102419424D01*
X104148819Y-102419424D01*
X104138188Y-102365984D01*
X104076436Y-102273564D01*
X103984016Y-102211812D01*
X103875000Y-102190127D01*
X102875000Y-102190127D01*
X102765984Y-102211812D01*
X102673564Y-102273564D01*
X102669900Y-102279048D01*
X102669900Y-101988434D01*
X106574369Y-101988434D01*
X106677583Y-102238232D01*
X106868534Y-102429517D01*
X107118152Y-102533168D01*
X107388434Y-102533403D01*
X107392788Y-102531604D01*
X108560592Y-103699408D01*
X108684198Y-103781998D01*
X108830000Y-103811001D01*
X108830005Y-103811000D01*
X109655008Y-103811000D01*
X109666228Y-103867407D01*
X109913999Y-104238223D01*
X110284815Y-104485994D01*
X110722222Y-104573000D01*
X111077778Y-104573000D01*
X111515185Y-104485994D01*
X111886001Y-104238223D01*
X112133772Y-103867407D01*
X112220778Y-103430000D01*
X112133772Y-102992593D01*
X111886001Y-102621777D01*
X111515185Y-102374006D01*
X111077778Y-102287000D01*
X110722222Y-102287000D01*
X110284815Y-102374006D01*
X109913999Y-102621777D01*
X109666228Y-102992593D01*
X109655008Y-103049000D01*
X108987816Y-103049000D01*
X107931780Y-101992964D01*
X107933168Y-101989620D01*
X107933403Y-101719338D01*
X107830189Y-101469540D01*
X107639238Y-101278255D01*
X107389620Y-101174604D01*
X107119338Y-101174369D01*
X106869540Y-101277583D01*
X106678255Y-101468534D01*
X106574604Y-101718152D01*
X106574369Y-101988434D01*
X102669900Y-101988434D01*
X102669900Y-98690898D01*
X102775631Y-98585352D01*
X102879282Y-98335734D01*
X102879517Y-98065452D01*
X102776303Y-97815654D01*
X102669900Y-97709065D01*
X102669900Y-96290898D01*
X102775631Y-96185352D01*
X102879282Y-95935734D01*
X102879517Y-95665452D01*
X102776303Y-95415654D01*
X102585352Y-95224369D01*
X102335734Y-95120718D01*
X102065452Y-95120483D01*
X101815654Y-95223697D01*
X101624369Y-95414648D01*
X101520718Y-95664266D01*
X101520483Y-95934548D01*
X101623697Y-96184346D01*
X101730100Y-96290935D01*
X101730100Y-97709102D01*
X101624369Y-97814648D01*
X101520718Y-98064266D01*
X101520483Y-98334548D01*
X101623697Y-98584346D01*
X101730100Y-98690935D01*
X101730100Y-107699998D01*
X101736088Y-107730100D01*
X98800000Y-107730100D01*
X98666687Y-107756618D01*
X98666864Y-107552799D01*
X98563650Y-107303001D01*
X98372699Y-107111716D01*
X98123081Y-107008065D01*
X97852799Y-107007830D01*
X97848445Y-107009629D01*
X95912988Y-105074172D01*
X95789383Y-104991582D01*
X95643580Y-104962580D01*
X93801396Y-104962580D01*
X93734210Y-104895394D01*
X93734210Y-104145250D01*
X99470600Y-104145250D01*
X99470600Y-104455576D01*
X99513136Y-104558267D01*
X99591733Y-104636864D01*
X99694424Y-104679400D01*
X100304750Y-104679400D01*
X100374600Y-104609550D01*
X100374600Y-104075400D01*
X100425400Y-104075400D01*
X100425400Y-104609550D01*
X100495250Y-104679400D01*
X101105576Y-104679400D01*
X101208267Y-104636864D01*
X101286864Y-104558267D01*
X101329400Y-104455576D01*
X101329400Y-104145250D01*
X101259550Y-104075400D01*
X100425400Y-104075400D01*
X100374600Y-104075400D01*
X99540450Y-104075400D01*
X99470600Y-104145250D01*
X93734210Y-104145250D01*
X93734210Y-103644424D01*
X99470600Y-103644424D01*
X99470600Y-103954750D01*
X99540450Y-104024600D01*
X100374600Y-104024600D01*
X100374600Y-103490450D01*
X100425400Y-103490450D01*
X100425400Y-104024600D01*
X101259550Y-104024600D01*
X101329400Y-103954750D01*
X101329400Y-103644424D01*
X101286864Y-103541733D01*
X101208267Y-103463136D01*
X101105576Y-103420600D01*
X100495250Y-103420600D01*
X100425400Y-103490450D01*
X100374600Y-103490450D01*
X100304750Y-103420600D01*
X99694424Y-103420600D01*
X99591733Y-103463136D01*
X99513136Y-103541733D01*
X99470600Y-103644424D01*
X93734210Y-103644424D01*
X93734210Y-102604606D01*
X94538815Y-101800000D01*
X99465127Y-101800000D01*
X99465127Y-102500000D01*
X99486812Y-102609016D01*
X99548564Y-102701436D01*
X99640984Y-102763188D01*
X99750000Y-102784873D01*
X101050000Y-102784873D01*
X101159016Y-102763188D01*
X101251436Y-102701436D01*
X101313188Y-102609016D01*
X101334873Y-102500000D01*
X101334873Y-101800000D01*
X101313188Y-101690984D01*
X101251436Y-101598564D01*
X101159016Y-101536812D01*
X101065774Y-101518265D01*
X101079282Y-101485734D01*
X101079517Y-101215452D01*
X100976303Y-100965654D01*
X100785352Y-100774369D01*
X100535734Y-100670718D01*
X100265452Y-100670483D01*
X100015654Y-100773697D01*
X99824369Y-100964648D01*
X99720718Y-101214266D01*
X99720483Y-101484548D01*
X99734400Y-101518230D01*
X99640984Y-101536812D01*
X99548564Y-101598564D01*
X99486812Y-101690984D01*
X99465127Y-101800000D01*
X94538815Y-101800000D01*
X99890262Y-96448553D01*
X99964266Y-96479282D01*
X100234548Y-96479517D01*
X100484346Y-96376303D01*
X100675631Y-96185352D01*
X100779282Y-95935734D01*
X100779517Y-95665452D01*
X100676303Y-95415654D01*
X100487710Y-95226731D01*
X100614266Y-95279282D01*
X100884548Y-95279517D01*
X101134346Y-95176303D01*
X101325631Y-94985352D01*
X101429282Y-94735734D01*
X101429517Y-94465452D01*
X101326303Y-94215654D01*
X101135352Y-94024369D01*
X100885734Y-93920718D01*
X100735126Y-93920587D01*
X100199767Y-93385229D01*
X100047321Y-93283367D01*
X99867498Y-93247598D01*
X96562556Y-93247598D01*
X96382733Y-93283367D01*
X96230287Y-93385229D01*
X95694915Y-93920601D01*
X92285140Y-93920601D01*
X91232268Y-92867730D01*
X91179387Y-92814849D01*
X91179517Y-92665452D01*
X91076303Y-92415654D01*
X90885352Y-92224369D01*
X90635734Y-92120718D01*
X90365452Y-92120483D01*
X90115654Y-92223697D01*
X90009065Y-92330100D01*
X89559873Y-92330100D01*
X89559873Y-92325000D01*
X89538188Y-92215984D01*
X89476436Y-92123564D01*
X89384016Y-92061812D01*
X89275000Y-92040127D01*
X88025000Y-92040127D01*
X87915984Y-92061812D01*
X87823564Y-92123564D01*
X87761812Y-92215984D01*
X87740127Y-92325000D01*
X87740127Y-93325000D01*
X87761812Y-93434016D01*
X87823564Y-93526436D01*
X87915984Y-93588188D01*
X88025000Y-93609873D01*
X89275000Y-93609873D01*
X89384016Y-93588188D01*
X89476436Y-93526436D01*
X89538188Y-93434016D01*
X89559873Y-93325000D01*
X89559873Y-93269900D01*
X90009102Y-93269900D01*
X90030100Y-93290935D01*
X90030100Y-93327493D01*
X89998564Y-93348564D01*
X89936812Y-93440984D01*
X89915127Y-93550000D01*
X89915127Y-93950000D01*
X89936812Y-94059016D01*
X89998564Y-94151436D01*
X90071246Y-94200000D01*
X89998564Y-94248564D01*
X89936812Y-94340984D01*
X89915127Y-94450000D01*
X89915127Y-94850000D01*
X89936812Y-94959016D01*
X89980100Y-95023802D01*
X89980100Y-95865127D01*
X89950000Y-95865127D01*
X89840984Y-95886812D01*
X89748564Y-95948564D01*
X89686812Y-96040984D01*
X89665127Y-96150000D01*
X89665127Y-97400000D01*
X89686812Y-97509016D01*
X89748564Y-97601436D01*
X89840984Y-97663188D01*
X89950000Y-97684873D01*
X89980100Y-97684873D01*
X89980100Y-97730100D01*
X86423802Y-97730100D01*
X86359016Y-97686812D01*
X86250000Y-97665127D01*
X84950000Y-97665127D01*
X84840984Y-97686812D01*
X84748564Y-97748564D01*
X84686812Y-97840984D01*
X84665127Y-97950000D01*
X84665127Y-98650000D01*
X84686812Y-98759016D01*
X84748564Y-98851436D01*
X84840984Y-98913188D01*
X84950000Y-98934873D01*
X86250000Y-98934873D01*
X86359016Y-98913188D01*
X86451436Y-98851436D01*
X86513188Y-98759016D01*
X86530915Y-98669900D01*
X86909969Y-98669900D01*
X86863136Y-98716733D01*
X86820600Y-98819424D01*
X86820600Y-99404750D01*
X86890450Y-99474600D01*
X87574600Y-99474600D01*
X87574600Y-99454600D01*
X87625400Y-99454600D01*
X87625400Y-99474600D01*
X88309550Y-99474600D01*
X88379400Y-99404750D01*
X88379400Y-98819424D01*
X88336864Y-98716733D01*
X88290031Y-98669900D01*
X88904048Y-98669900D01*
X88898564Y-98673564D01*
X88836812Y-98765984D01*
X88815127Y-98875000D01*
X88815127Y-100125000D01*
X88836812Y-100234016D01*
X88898564Y-100326436D01*
X88990984Y-100388188D01*
X89100000Y-100409873D01*
X89168200Y-100409873D01*
X89168200Y-100602036D01*
X89098564Y-100648564D01*
X89049438Y-100722088D01*
X89036864Y-100691733D01*
X88958267Y-100613136D01*
X88855576Y-100570600D01*
X88595250Y-100570600D01*
X88525400Y-100640450D01*
X88525400Y-101074600D01*
X88545400Y-101074600D01*
X88545400Y-101125400D01*
X88525400Y-101125400D01*
X88525400Y-101559550D01*
X88595250Y-101629400D01*
X88855576Y-101629400D01*
X88958267Y-101586864D01*
X89036864Y-101508267D01*
X89049438Y-101477912D01*
X89098564Y-101551436D01*
X89190984Y-101613188D01*
X89254200Y-101625763D01*
X89254200Y-101697127D01*
X89178000Y-101697127D01*
X89068984Y-101718812D01*
X88976564Y-101780564D01*
X88914812Y-101872984D01*
X88893127Y-101982000D01*
X88893127Y-104014000D01*
X88914812Y-104123016D01*
X88976564Y-104215436D01*
X89068984Y-104277188D01*
X89178000Y-104298873D01*
X89216100Y-104298873D01*
X89216100Y-104323800D01*
X87831800Y-104323800D01*
X87831800Y-104298873D01*
X87908000Y-104298873D01*
X88017016Y-104277188D01*
X88109436Y-104215436D01*
X88171188Y-104123016D01*
X88192873Y-104014000D01*
X88192873Y-101982000D01*
X88171188Y-101872984D01*
X88109436Y-101780564D01*
X88017016Y-101718812D01*
X87908000Y-101697127D01*
X87217784Y-101697127D01*
X86715908Y-101195250D01*
X87920600Y-101195250D01*
X87920600Y-101405576D01*
X87963136Y-101508267D01*
X88041733Y-101586864D01*
X88144424Y-101629400D01*
X88404750Y-101629400D01*
X88474600Y-101559550D01*
X88474600Y-101125400D01*
X87990450Y-101125400D01*
X87920600Y-101195250D01*
X86715908Y-101195250D01*
X86338022Y-100817364D01*
X86359016Y-100813188D01*
X86387098Y-100794424D01*
X87920600Y-100794424D01*
X87920600Y-101004750D01*
X87990450Y-101074600D01*
X88474600Y-101074600D01*
X88474600Y-100640450D01*
X88404750Y-100570600D01*
X88144424Y-100570600D01*
X88041733Y-100613136D01*
X87963136Y-100691733D01*
X87920600Y-100794424D01*
X86387098Y-100794424D01*
X86451436Y-100751436D01*
X86513188Y-100659016D01*
X86534873Y-100550000D01*
X86534873Y-99850000D01*
X86513188Y-99740984D01*
X86451436Y-99648564D01*
X86371645Y-99595250D01*
X86820600Y-99595250D01*
X86820600Y-100180576D01*
X86863136Y-100283267D01*
X86941733Y-100361864D01*
X87044424Y-100404400D01*
X87504750Y-100404400D01*
X87574600Y-100334550D01*
X87574600Y-99525400D01*
X87625400Y-99525400D01*
X87625400Y-100334550D01*
X87695250Y-100404400D01*
X88155576Y-100404400D01*
X88258267Y-100361864D01*
X88336864Y-100283267D01*
X88379400Y-100180576D01*
X88379400Y-99595250D01*
X88309550Y-99525400D01*
X87625400Y-99525400D01*
X87574600Y-99525400D01*
X86890450Y-99525400D01*
X86820600Y-99595250D01*
X86371645Y-99595250D01*
X86359016Y-99586812D01*
X86250000Y-99565127D01*
X84950000Y-99565127D01*
X84840984Y-99586812D01*
X84748564Y-99648564D01*
X84686812Y-99740984D01*
X84665127Y-99850000D01*
X84665127Y-100550000D01*
X84686812Y-100659016D01*
X84748564Y-100751436D01*
X84840984Y-100813188D01*
X84950000Y-100834873D01*
X85197017Y-100834873D01*
X85201069Y-100855243D01*
X85261579Y-100945803D01*
X85294671Y-100995329D01*
X86607127Y-102307784D01*
X86607127Y-104014000D01*
X86628812Y-104123016D01*
X86690564Y-104215436D01*
X86782984Y-104277188D01*
X86892000Y-104298873D01*
X86968200Y-104298873D01*
X86968200Y-104323800D01*
X83354400Y-104323800D01*
X83354400Y-103093250D01*
X84326600Y-103093250D01*
X84326600Y-104069576D01*
X84369136Y-104172267D01*
X84447733Y-104250864D01*
X84550424Y-104293400D01*
X85018750Y-104293400D01*
X85088600Y-104223550D01*
X85088600Y-103023400D01*
X85139400Y-103023400D01*
X85139400Y-104223550D01*
X85209250Y-104293400D01*
X85677576Y-104293400D01*
X85780267Y-104250864D01*
X85858864Y-104172267D01*
X85901400Y-104069576D01*
X85901400Y-103093250D01*
X85831550Y-103023400D01*
X85139400Y-103023400D01*
X85088600Y-103023400D01*
X84396450Y-103023400D01*
X84326600Y-103093250D01*
X83354400Y-103093250D01*
X83354400Y-101926424D01*
X84326600Y-101926424D01*
X84326600Y-102902750D01*
X84396450Y-102972600D01*
X85088600Y-102972600D01*
X85088600Y-101772450D01*
X85139400Y-101772450D01*
X85139400Y-102972600D01*
X85831550Y-102972600D01*
X85901400Y-102902750D01*
X85901400Y-101926424D01*
X85858864Y-101823733D01*
X85780267Y-101745136D01*
X85677576Y-101702600D01*
X85209250Y-101702600D01*
X85139400Y-101772450D01*
X85088600Y-101772450D01*
X85018750Y-101702600D01*
X84550424Y-101702600D01*
X84447733Y-101745136D01*
X84369136Y-101823733D01*
X84326600Y-101926424D01*
X83354400Y-101926424D01*
X83354400Y-96870250D01*
X87670600Y-96870250D01*
X87670600Y-97455576D01*
X87713136Y-97558267D01*
X87791733Y-97636864D01*
X87894424Y-97679400D01*
X88354750Y-97679400D01*
X88424600Y-97609550D01*
X88424600Y-96800400D01*
X88475400Y-96800400D01*
X88475400Y-97609550D01*
X88545250Y-97679400D01*
X89005576Y-97679400D01*
X89108267Y-97636864D01*
X89186864Y-97558267D01*
X89229400Y-97455576D01*
X89229400Y-96870250D01*
X89159550Y-96800400D01*
X88475400Y-96800400D01*
X88424600Y-96800400D01*
X87740450Y-96800400D01*
X87670600Y-96870250D01*
X83354400Y-96870250D01*
X83354400Y-96094424D01*
X87670600Y-96094424D01*
X87670600Y-96679750D01*
X87740450Y-96749600D01*
X88424600Y-96749600D01*
X88424600Y-95940450D01*
X88475400Y-95940450D01*
X88475400Y-96749600D01*
X89159550Y-96749600D01*
X89229400Y-96679750D01*
X89229400Y-96094424D01*
X89186864Y-95991733D01*
X89108267Y-95913136D01*
X89005576Y-95870600D01*
X88545250Y-95870600D01*
X88475400Y-95940450D01*
X88424600Y-95940450D01*
X88354750Y-95870600D01*
X87894424Y-95870600D01*
X87791733Y-95913136D01*
X87713136Y-95991733D01*
X87670600Y-96094424D01*
X83354400Y-96094424D01*
X83354400Y-94920250D01*
X87745600Y-94920250D01*
X87745600Y-95380576D01*
X87788136Y-95483267D01*
X87866733Y-95561864D01*
X87969424Y-95604400D01*
X88554750Y-95604400D01*
X88624600Y-95534550D01*
X88624600Y-94850400D01*
X88675400Y-94850400D01*
X88675400Y-95534550D01*
X88745250Y-95604400D01*
X89330576Y-95604400D01*
X89433267Y-95561864D01*
X89511864Y-95483267D01*
X89554400Y-95380576D01*
X89554400Y-94920250D01*
X89484550Y-94850400D01*
X88675400Y-94850400D01*
X88624600Y-94850400D01*
X87815450Y-94850400D01*
X87745600Y-94920250D01*
X83354400Y-94920250D01*
X83354400Y-94269424D01*
X87745600Y-94269424D01*
X87745600Y-94729750D01*
X87815450Y-94799600D01*
X88624600Y-94799600D01*
X88624600Y-94115450D01*
X88675400Y-94115450D01*
X88675400Y-94799600D01*
X89484550Y-94799600D01*
X89554400Y-94729750D01*
X89554400Y-94269424D01*
X89511864Y-94166733D01*
X89433267Y-94088136D01*
X89330576Y-94045600D01*
X88745250Y-94045600D01*
X88675400Y-94115450D01*
X88624600Y-94115450D01*
X88554750Y-94045600D01*
X87969424Y-94045600D01*
X87866733Y-94088136D01*
X87788136Y-94166733D01*
X87745600Y-94269424D01*
X83354400Y-94269424D01*
X83354400Y-91834548D01*
X98820483Y-91834548D01*
X98923697Y-92084346D01*
X99114648Y-92275631D01*
X99364266Y-92379282D01*
X99634548Y-92379517D01*
X99884346Y-92276303D01*
X100075631Y-92085352D01*
X100119320Y-91980137D01*
X100214648Y-92075631D01*
X100464266Y-92179282D01*
X100734548Y-92179517D01*
X100984346Y-92076303D01*
X101175631Y-91885352D01*
X101279282Y-91635734D01*
X101279417Y-91481001D01*
X102230555Y-91481001D01*
X103819000Y-93069445D01*
X103819000Y-100472314D01*
X103815654Y-100473697D01*
X103624369Y-100664648D01*
X103520718Y-100914266D01*
X103520483Y-101184548D01*
X103623697Y-101434346D01*
X103814648Y-101625631D01*
X104064266Y-101729282D01*
X104334548Y-101729517D01*
X104584346Y-101626303D01*
X104775631Y-101435352D01*
X104879282Y-101185734D01*
X104879418Y-101029373D01*
X105054548Y-101029525D01*
X105304346Y-100926311D01*
X105340720Y-100890000D01*
X109579222Y-100890000D01*
X109666228Y-101327407D01*
X109913999Y-101698223D01*
X110284815Y-101945994D01*
X110722222Y-102033000D01*
X111077778Y-102033000D01*
X111515185Y-101945994D01*
X111886001Y-101698223D01*
X112133772Y-101327407D01*
X112220778Y-100890000D01*
X112133772Y-100452593D01*
X111886001Y-100081777D01*
X111515185Y-99834006D01*
X111077778Y-99747000D01*
X110722222Y-99747000D01*
X110284815Y-99834006D01*
X109913999Y-100081777D01*
X109666228Y-100452593D01*
X109579222Y-100890000D01*
X105340720Y-100890000D01*
X105495631Y-100735360D01*
X105599282Y-100485742D01*
X105599517Y-100215460D01*
X105496303Y-99965662D01*
X105305352Y-99774377D01*
X105081000Y-99681217D01*
X105081000Y-98553848D01*
X109622924Y-98553848D01*
X109681885Y-98763940D01*
X109921416Y-99140262D01*
X110286726Y-99396274D01*
X110722200Y-99493000D01*
X110874600Y-99493000D01*
X110874600Y-98375400D01*
X110925400Y-98375400D01*
X110925400Y-99493000D01*
X111077800Y-99493000D01*
X111513274Y-99396274D01*
X111878584Y-99140262D01*
X112118115Y-98763940D01*
X112177076Y-98553848D01*
X112125249Y-98375400D01*
X110925400Y-98375400D01*
X110874600Y-98375400D01*
X109674751Y-98375400D01*
X109622924Y-98553848D01*
X105081000Y-98553848D01*
X105081000Y-98146152D01*
X109622924Y-98146152D01*
X109674751Y-98324600D01*
X110874600Y-98324600D01*
X110874600Y-97207000D01*
X110925400Y-97207000D01*
X110925400Y-98324600D01*
X112125249Y-98324600D01*
X112177076Y-98146152D01*
X112118115Y-97936060D01*
X111878584Y-97559738D01*
X111513274Y-97303726D01*
X111077800Y-97207000D01*
X110925400Y-97207000D01*
X110874600Y-97207000D01*
X110722200Y-97207000D01*
X110286726Y-97303726D01*
X109921416Y-97559738D01*
X109681885Y-97936060D01*
X109622924Y-98146152D01*
X105081000Y-98146152D01*
X105081000Y-95810000D01*
X109579222Y-95810000D01*
X109666228Y-96247407D01*
X109913999Y-96618223D01*
X110284815Y-96865994D01*
X110722222Y-96953000D01*
X111077778Y-96953000D01*
X111515185Y-96865994D01*
X111886001Y-96618223D01*
X112133772Y-96247407D01*
X112220778Y-95810000D01*
X112133772Y-95372593D01*
X111886001Y-95001777D01*
X111515185Y-94754006D01*
X111077778Y-94667000D01*
X110722222Y-94667000D01*
X110284815Y-94754006D01*
X109913999Y-95001777D01*
X109666228Y-95372593D01*
X109579222Y-95810000D01*
X105081000Y-95810000D01*
X105081000Y-92841405D01*
X105051998Y-92695603D01*
X105051998Y-92695602D01*
X104969408Y-92571997D01*
X104803811Y-92406400D01*
X109599127Y-92406400D01*
X109599127Y-94133600D01*
X109620812Y-94242616D01*
X109682564Y-94335036D01*
X109774984Y-94396788D01*
X109884000Y-94418473D01*
X111916000Y-94418473D01*
X112025016Y-94396788D01*
X112117436Y-94335036D01*
X112179188Y-94242616D01*
X112200873Y-94133600D01*
X112200873Y-92406400D01*
X112179188Y-92297384D01*
X112117436Y-92204964D01*
X112025016Y-92143212D01*
X111916000Y-92121527D01*
X109884000Y-92121527D01*
X109774984Y-92143212D01*
X109682564Y-92204964D01*
X109620812Y-92297384D01*
X109599127Y-92406400D01*
X104803811Y-92406400D01*
X102824794Y-90427383D01*
X102701189Y-90344793D01*
X102555386Y-90315791D01*
X99937524Y-90315791D01*
X99791722Y-90344793D01*
X99668116Y-90427383D01*
X99668114Y-90427386D01*
X99230592Y-90864907D01*
X99148002Y-90988512D01*
X99122912Y-91114648D01*
X99121601Y-91121240D01*
X99115654Y-91123697D01*
X98924369Y-91314648D01*
X98820718Y-91564266D01*
X98820483Y-91834548D01*
X83354400Y-91834548D01*
X83354400Y-87834548D01*
X100798090Y-87834548D01*
X100901304Y-88084346D01*
X101092255Y-88275631D01*
X101341873Y-88379282D01*
X101612155Y-88379517D01*
X101861953Y-88276303D01*
X102053238Y-88085352D01*
X102156889Y-87835734D01*
X102157110Y-87581000D01*
X102901501Y-87581000D01*
X102948564Y-87651436D01*
X103040984Y-87713188D01*
X103150000Y-87734873D01*
X103750000Y-87734873D01*
X103859016Y-87713188D01*
X103951436Y-87651436D01*
X104000000Y-87578754D01*
X104048564Y-87651436D01*
X104140984Y-87713188D01*
X104250000Y-87734873D01*
X104850000Y-87734873D01*
X104959016Y-87713188D01*
X105051436Y-87651436D01*
X105098499Y-87581000D01*
X106801329Y-87581000D01*
X106883697Y-87780346D01*
X107074648Y-87971631D01*
X107324266Y-88075282D01*
X107594548Y-88075517D01*
X107844346Y-87972303D01*
X108035631Y-87781352D01*
X108139282Y-87531734D01*
X108139517Y-87261452D01*
X108036303Y-87011654D01*
X107845352Y-86820369D01*
X107595734Y-86716718D01*
X107325452Y-86716483D01*
X107077341Y-86819000D01*
X105098499Y-86819000D01*
X105051436Y-86748564D01*
X104959016Y-86686812D01*
X104850000Y-86665127D01*
X104250000Y-86665127D01*
X104140984Y-86686812D01*
X104048564Y-86748564D01*
X104000000Y-86821246D01*
X103951436Y-86748564D01*
X103859016Y-86686812D01*
X103750000Y-86665127D01*
X103150000Y-86665127D01*
X103040984Y-86686812D01*
X102948564Y-86748564D01*
X102901501Y-86819000D01*
X101977612Y-86819000D01*
X101977607Y-86818999D01*
X101831805Y-86848002D01*
X101708199Y-86930592D01*
X101616685Y-87022106D01*
X101613341Y-87020718D01*
X101343059Y-87020483D01*
X101093261Y-87123697D01*
X100901976Y-87314648D01*
X100798325Y-87564266D01*
X100798090Y-87834548D01*
X83354400Y-87834548D01*
X83354400Y-79993078D01*
X87270352Y-79993078D01*
X87487507Y-80518632D01*
X87889253Y-80921080D01*
X88414427Y-81139152D01*
X88983078Y-81139648D01*
X89508632Y-80922493D01*
X89911080Y-80520747D01*
X90129152Y-79995573D01*
X90129648Y-79426922D01*
X89912493Y-78901368D01*
X89510747Y-78498920D01*
X88985573Y-78280848D01*
X88416922Y-78280352D01*
X87891368Y-78497507D01*
X87488920Y-78899253D01*
X87270848Y-79424427D01*
X87270352Y-79993078D01*
X83354400Y-79993078D01*
X83354400Y-75076200D01*
X112645600Y-75076200D01*
X112645600Y-108853203D01*
G36*
X89216100Y-106186000D02*
X89242897Y-106320718D01*
X89251869Y-106365823D01*
X89353731Y-106518269D01*
X90723800Y-107888338D01*
X90723800Y-116222603D01*
X83354400Y-108853202D01*
X83354400Y-104776200D01*
X89216100Y-104776200D01*
X89216100Y-106186000D01*
X89216100Y-106186000D01*
G37*
X89216100Y-106186000D02*
X89242897Y-106320718D01*
X89251869Y-106365823D01*
X89353731Y-106518269D01*
X90723800Y-107888338D01*
X90723800Y-116222603D01*
X83354400Y-108853202D01*
X83354400Y-104776200D01*
X89216100Y-104776200D01*
X89216100Y-106186000D01*
M02*
